<svg viewBox="0 0 140.8 56.3" xmlns="http://www.w3.org/2000/svg"><path d="M28.7 7.5l6.8-4.1L45.4 1l8.2 1.3 3.8.5 6 4.7 4.4 3.9.8 6 .3 2.9.8-5.7 4.5-3.3 4 .9 2.2 2.7.2 5.4.7.9 3.1-3.8 6.6-4.2 5.8-1.2 8 1.2 6.7 4 4.6 6.3.8 4.2.9 4.3 5.2-3.2 5.8-.4 4.3 1.9 6.2 7 .9 5.7-2 7.2-34 3.8-30 1.2-30.3-.7-25.8-1.7-7.3-2.2L4 45.9l-2.9-7.3V33l3.3-6.7 5.6-3.6 6.4.5 5 2.2 2.6 2.7-2.4-3.9.9-8.1z" fill="#fff"/><path d="M138 36.2c-.1 4.2-3.3 7.9-7.1 9.8s-8.1 2.2-12.3 2.5c-14.6.9-29.2.5-43.7-1.1-7.9-.9-16-2.2-23.2-5.5S37.9 33 34.9 25.6 33 8.9 38.8 3.4l-7.4 2.2-7 6.4-2.4 8.8.6 5.7-3.7-3.1-7-.9-6.6 2.8-4.8 9.1 3.2 11L8.5 50l7 2.6 19.9 1.7L70 55.5l32.1-.9 24.2-2.6 11.9-1.7 1.4-4.8v-4.8z" fill="#c7d9e0"/><path d="M14.5 52.6c3.9.9 7.8 1.4 11.8 1.6 4.1.4 8.1.7 12.2 1 8 .6 16 .9 23.9 1 16.1.3 32.3-.3 48.4-1.7 9-.8 18-1.7 26.9-3.2.9-.2.7-1.8-.2-1.6-16 2.1-32 3.8-48.2 4.5-16 .7-32 .5-47.9-.4-4.4-.2-8.8-.5-13.2-.9-4.5-.4-9.1-1.1-13.6-1-.2 0-.3.2-.3.4 0 0 .1.2.2.3z"/><path d="M15.4 51.7c-1.5-.8-3.3-1-4.8-1.8-1.6-.8-3.1-1.8-4.4-3.1-2.7-2.6-4.4-6.2-4.6-10-.4-7 5.1-14 12.4-13.8 2 .1 3.9.6 5.6 1.6 1.6 1.1 3 2.5 4.1 4.1.4.6 1.6.3 1.3-.5-1.3-3.4-5.1-5.7-8.6-6.4-4-.8-7.8.2-10.8 2.5-6.7 5.2-7.2 15.1-2.1 21.6 1.4 1.8 3.2 3.3 5.2 4.5 1.8 1 4.4 2.3 6.5 2 .3 0 .6-.5.2-.7z"/><path d="M23.9 28.7c-2.1-4.6-2-9.9.4-14.4 2.3-4.1 5.8-7.4 10-9.4 8.7-4.4 20.4-5 28 1.9 1.9 1.7 3.4 3.7 4.4 6s1.5 4.8 1.5 7.3c.1.8 1.3 1 1.4.2.8-4.7-1.6-9.6-4.6-13.1-3.5-3.9-8.3-6.4-13.4-7-10.3-1.4-22.6 3.2-28 12.5-2.8 4.8-3.6 11.6-.4 16.5.1.2.4.3.6.2.2-.2.2-.5.1-.7z"/><path d="M68.9 20.3c.4-.9.6-1.7.8-2.6.3-.9.7-1.8 1.2-2.6.9-1.5 2.5-2.5 4.3-2.7 1.7-.2 3.4.8 4.1 2.4 1 2 .6 4.2.5 6.3 0 .8 1.3 1 1.5.2.6-3.4.4-8.2-3.2-9.9-3.2-1.5-6.7.4-8.4 3.2-.5.9-.9 1.8-1.1 2.8-.3.9-.4 1.9-.3 2.9.1.2.3.3.5.2 0 0 .1-.1.1-.2z"/><path d="M81.3 22.1c3.7-5.6 9.8-9 16.5-9.3 6.8-.1 13.1 3.5 16.5 9.5 1.9 3.3 2.8 7.1 2.7 10.9 0 .8 1.3 1.1 1.5.2 1-7.1-3.4-14.7-9.1-18.7-6.1-4.1-13.9-4.5-20.4-1.2-3.7 1.7-6.7 4.6-8.5 8.1-.1.2 0 .5.2.6s.4 0 .6-.1z"/><path d="M117.7 33.2c1.1-1.1 2.3-2 3.6-2.7 1.4-.7 2.9-1.1 4.5-1.2 3.1-.2 6.1.8 8.5 2.8 5.4 4.5 6.2 12.3 3.1 18.4-.4.8.9 1.6 1.3.8 2.8-5.3 3-12-.5-17.1-3-4.7-8.5-7.1-14-6.1-2.7.5-5.9 2.2-7.2 4.7-.1.2 0 .5.2.7.2-.1.4-.2.5-.3z"/></svg>