<svg xmlns="http://www.w3.org/2000/svg" viewBox="0 0 185.39 203.2"><defs><style>.a{fill:#6da3e3}.b{fill:#535151}</style></defs><title>cat</title><path d="M6.78 190.43L8.16 198l6.62 4.69s15.17 1.52 17.1-16.27S18 151.12 18 151.12l-4.46-14.62L14 119l2.76-20 5.1-16.42 8.42-14.89s-4 14.2.55 20.82 10.62 12.14 18.07 13.38S72.61 99 72.61 99l14.16-.31s7-1.65 8.14-4.14 1.11 0 1.11 0l5.65-.27 17.93-4.14 13.52-2.62 8.55-4.14 4.41-2.62L153 78l16-1.1 9-3.45 7.45-5.65-4-3.73-14.62-4.41s-6.76-4.55-7-12.14a51.59 51.59 0 0 0 5.17-6.74s5.24-9.1 4.13-13.93A129.85 129.85 0 0 0 165 14s3.86-7.87 1.38-13.52c-6.62-1.1-13.52 7.17-13.52 7.17l-17.26-.8-9.24 4.56s-9.93-6.21-13-3.73 2.21 12.55 2.21 12.55l3.86 3 .55 7.17-3.44 4.27s-12.56 9.66-28 9A235.37 235.37 0 0 0 57 44.78l-15 4.69s-15.31 6.9-25.1 25.93-15.45 47-15.45 47l.28 23 2.84 8.6 8.14 12 2.62 8.69.14 6.34-1.1 3L9.81 187z" class="a"/><path d="M145.45 26.66a.77.77 0 00.5.36 2.84 2.84 0 00.51.06h.75l1.56-.07-.2-1.48-4 .71a.79.79 0 00-.55.65.77.77 0 00.37.78l2.93 1.3a1.23 1.23 0 001.15 0 1.28 1.28 0 00.56-.73 14.11 14.11 0 00.55-1.54.75.75 0 00-1.37-.58c-.21.44-.37.89-.54 1.34a1.25 1.25 0 01-.12.34c0-.05.07-.1 0 0a.94.94 0 01.54-.2s-.09 0 0 0l-.15-.06-.33-.15-2.46-1.1-.18 1.43 4-.76a.76.76 0 00-.2-1.49l-1.56.08c-.56 0-1.43-.06-1.76.49a.6.6 0 000 .62zM153.52 19.57a.87.87 0 00-.44.85 1.4 1.4 0 00.15.53 1.07 1.07 0 00.39.4h.07a1.18 1.18 0 00.2.07h.21a.11.11 0 00.08 0 1 1 0 00.44-.12 1 1 0 00.17-.13.12.12 0 00.05 0A.92.92 0 00155 21a1.33 1.33 0 00.1-.28 1.52 1.52 0 000-.6 1.33 1.33 0 00-.3-.56 1.08 1.08 0 00-.53-.34l.17.07a1.17 1.17 0 00-.26-.1.83.83 0 00-.22 0h-.26a.56.56 0 00-.24.13.33.33 0 00-.13.13.47.47 0 00-.13.25 1 1 0 000 .24 2.13 2.13 0 000 .25.56.56 0 000 .12 1.56 1.56 0 00.3.51 2.11 2.11 0 00.23.19l.11.07.21.09a.51.51 0 00.3 0 .54.54 0 00.28-.09l.11-.08.11-.09a1.1 1.1 0 00.14-.18 1.26 1.26 0 00.13-.26v-.11a1.37 1.37 0 000-.29.9.9 0 000-.28 1.14 1.14 0 00-.24-.41 1.12 1.12 0 00-.21-.17.93.93 0 00-.27-.12h-.06a1.9 1.9 0 00-.25 0 .83.83 0 00-.31 0l-.22.1a.88.88 0 00-.24.19.61.61 0 00-.15.24.59.59 0 00-.07.29.57.57 0 00.07.29.61.61 0 00.15.24.75.75 0 00.53.22h.2a.7.7 0 00.33-.2l.05-.05-.15.12h.07l-.17.07h.1-.2.1-.2.1l-.18-.08.08.05-.15-.12.05.06-.12-.16a.16.16 0 010 .07l-.08-.18a.16.16 0 010 .09v-.2a.17.17 0 010 .1v-.2a.38.38 0 010 .1l.08-.17a.56.56 0 00-.05.08l.11-.15v.06l.15-.12h-.07l.57-.07h-.07l.18.08-.12-.07.15.11a.38.38 0 01-.11-.11l.11.15a.64.64 0 01-.08-.14l.07.18a.83.83 0 010-.15V20a2.34 2.34 0 000-.26l-.34.82-.17.07h.09-.18.06-.18.07l-.16-.06a.31.31 0 01.1.05l-.14-.1a.52.52 0 01.11.1l-.11-.13a.6.6 0 01.09.15l-.06-.15a1.21 1.21 0 01.05.18v-.17a.76.76 0 010 .15v-.17.12l.06-.15a.22.22 0 010 .08l.1-.13-.06.07.12-.1a.41.41 0 01-.11.07l.15-.07a.16.16 0 01-.09 0h.16-.16.16-.12l.14.06-.11-.07.12.09-.16-.12.12.09a.74.74 0 01-.13-.12l.09.11a.86.86 0 01-.1-.16l.05.12a.74.74 0 010-.14v.12a.24.24 0 010-.12v.12-.09l-.05.11a.41.41 0 01.05-.09l-.07.09.05-.05a.42.42 0 000-.54.42.42 0 00-.22-.15.45.45 0 00-.32 0zM134.14 21.2a1 1 0 00-.27.92 1.06 1.06 0 00.77.76 1.45 1.45 0 001.06-.16 1.39 1.39 0 00.35-.29 2 2 0 00.26-.38 1.8 1.8 0 00.14-.43v-.32a1.65 1.65 0 000-.32 1.31 1.31 0 00-.16-.43 1.49 1.49 0 00-.28-.38 2 2 0 00-.37-.27 1.49 1.49 0 00-.44-.17 1.56 1.56 0 00-.48 0 1.91 1.91 0 00-.62.17 1.66 1.66 0 00-.66.63 2 2 0 00-.18.42 1.68 1.68 0 00-.05.45 1.48 1.48 0 00.41 1 1.44 1.44 0 00.34.27 1.59 1.59 0 00.41.16 1.65 1.65 0 00.44.05 1.49 1.49 0 00.43-.07 1.55 1.55 0 00.54-.32 1.5 1.5 0 00.2-.24l.06-.1a1.58 1.58 0 00.12-1.05 1.52 1.52 0 00-.16-.4 1.36 1.36 0 00-.25-.34 1.33 1.33 0 00-1.9 0 1.5 1.5 0 00-.2.24l-.06.1a1.38 1.38 0 00-.15.4 1.18 1.18 0 000 .42 1.33 1.33 0 00.13.52 1.77 1.77 0 00.12.17 1.37 1.37 0 00.38.34.85.85 0 001.08-.22.84.84 0 00-.06-1.1v-.05l.13.17-.05-.09.09.21a.73.73 0 010-.2v.23a.48.48 0 010-.17v.23a1 1 0 010-.17l-.08.21a.53.53 0 01.08-.15l-.13.17a.52.52 0 01.1-.11l-.17.14.12-.07-.21.08h.12-.23.11-.23.13l-.21-.09.13.07-.17-.13a.57.57 0 01.11.11l-.13-.17a.65.65 0 01.09.16l-.08-.2a1.46 1.46 0 01.05.2v-.22a.54.54 0 010 .18v-.22a.7.7 0 010 .14l.08-.2a.54.54 0 01-.07.13l.13-.17-.1.1.17-.13-.13.07.2-.08-.19.05h.22a.61.61 0 01-.19 0h.22a.86.86 0 01-.23-.06l.2.08a1 1 0 01-.17-.1l.16.13-.12-.12.13.16a.46.46 0 01-.08-.13l.08.19a.59.59 0 01-.05-.19v.22a1.34 1.34 0 010-.2v.22a.65.65 0 01.06-.21l-.08.19a.72.72 0 01.12-.21l-.13.16.17-.17-.16.12.17-.1-.18.08.19-.05h-.21a.89.89 0 01.23 0h-.2a.9.9 0 01.22.06l-.19-.08a1.71 1.71 0 01.23.13l-.16-.12a.81.81 0 01.16.16l-.11-.15a.77.77 0 01.1.18l-.07-.19a2 2 0 01.06.23v-.21a.88.88 0 010 .23v-.2a1.05 1.05 0 01-.06.24l.07-.18a.94.94 0 01-.12.22l.11-.15-.19.19.14-.12-.16.1.18-.08a.6.6 0 01-.19.06h.19-.17.19-.28.18a.19.19 0 01-.1 0l.15.07H135l.13.1-.06-.06.09.12a.2.2 0 010-.08l.06.15a.23.23 0 010-.11v.15a.2.2 0 010-.11v.15a.29.29 0 010-.09l-.05.13a.59.59 0 00.06-.41.56.56 0 00-.19-.28.53.53 0 00-.7 0z" class="b"/><path d="M154.13 18.78a.51.51 0 00-.28.31.78.78 0 000 .22 1.49 1.49 0 000 .21.59.59 0 00.32.53 1 1 0 00.23.11l-.14-.06a1.45 1.45 0 00.22.09h.25-.18a.91.91 0 00.23 0 .84.84 0 00.38-.11 1.18 1.18 0 00.25-.19 1.19 1.19 0 00.32-.51 1 1 0 000-.63.88.88 0 00-.13-.28 1.45 1.45 0 00-.19-.23 1.31 1.31 0 00-.55-.28 1.34 1.34 0 00-.63 0h-.12a1.92 1.92 0 00-.29.14 1.16 1.16 0 00-.43.45 1.26 1.26 0 00-.15.66 1.36 1.36 0 00.19.65 1.47 1.47 0 00.47.49.41.41 0 00.11.07 1.33 1.33 0 00.33.13 1.46 1.46 0 00.36 0h.27l.18-.07a.91.91 0 00.22-.11 1.49 1.49 0 00.28-.23 1.23 1.23 0 00.27-.47 1 1 0 00.06-.34.83.83 0 00-.05-.35 1 1 0 00-.26-.45 1.16 1.16 0 00-.77-.32 1.29 1.29 0 00-.63.17 1.14 1.14 0 00-.44.43 1 1 0 00-.12.46 1.24 1.24 0 000 .27 1.13 1.13 0 00.26.45.55.55 0 00.27.17.56.56 0 00.32.07h.22a.51.51 0 00.28-.15.4.4 0 00.15-.14.8.8 0 00.15-.29.85.85 0 00-.09-.64l.09.2v.44a.14.14 0 010-.06l-.09.21-.13.17.06-.05-.17.13.08-.05-.2.08h.11-.22.09-.22.07l-.2-.08h.05l-.17-.13-.13-.17v.05l-.09-.2v.09-.22.09-.22.08l.09-.2-.06.11.13-.17a.52.52 0 01-.11.1l.17-.12-.14.07.2-.08h-.13.22-.13.22-.14l.2.08-.14-.08.17.13a.34.34 0 01-.12-.12l.12.17-.09-.16.08.19a1.21 1.21 0 01-.05-.18v.21-.22.21a.56.56 0 010-.12l-.08.19a.41.41 0 01.05-.09l-.12.16a.24.24 0 01.08-.09l-.15.12a.41.41 0 01.11-.07l-.18.08h.13-.2.16-.2.14l-.18-.07h.09l-.15-.12.08.08-.12-.15.06.1-.08-.18v.09-.2a.21.21 0 010 .11v-.2a.65.65 0 010 .13l.08-.18a.75.75 0 01-.07.12l.11-.15a.52.52 0 01-.1.11l.14-.11a1.18 1.18 0 00-.18.13.94.94 0 00-.12.18l.1-.14.13-.1-.08.05.14-.06h.16-.09.15-.06l.38.39-.09-.23v-.06a.68.68 0 00-.18-.26.46.46 0 00-.23-.09h-.08a.29.29 0 00-.16 0zM147.12 27.71a22.83 22.83 0 00.72 4.78c.16.83.32 1.66.5 2.49a13.51 13.51 0 01.41 2.52 3 3 0 01-1.86 3 2.18 2.18 0 01-2.64-1.2c-.47-1-1.95-.13-1.51.89a3.75 3.75 0 003.65 2.12 4.26 4.26 0 003.6-2.85c.7-1.83 0-4-.4-5.8-.22-1.05-.46-2.09-.69-3.13a15.66 15.66 0 00-.9-3.07c-.21-.45-.87-.19-.88.24z" class="b"/><path d="M148.86 36.81a3.83 3.83 0 001.49 2.59 3.71 3.71 0 003 .84 3.51 3.51 0 002.48-1.68 3.47 3.47 0 00.32-3.05.73.73 0 00-1.36.37 5.22 5.22 0 01.06 1 2.32 2.32 0 01-.34.93 2.21 2.21 0 01-1.55 1 2.29 2.29 0 01-1.87-.58c-.6-.54-1-1.35-1.67-1.77a.38.38 0 00-.56.33zM130.68 19.2c.07-.15.14-.28.2-.43v-.08a1.3 1.3 0 01.08-.17c0-.1.11-.2.17-.3l.11-.16s.08-.11 0 0a3.32 3.32 0 01.52-.54l.15-.13c-.08.07 0 0 0 0l.32-.21.3-.18.17-.08s.21-.09 0 0a4.33 4.33 0 01.7-.21h.15c.09 0 .18 0 0 0h1.13a.76.76 0 00.2-1.48 4.54 4.54 0 00-5.38 3.84c0 .51.8.79 1 .28zM151.65 14.84a3 3 0 00.83-.08l.39-.09.27-.05H154.59a6.31 6.31 0 01.72.18l.37.13c.26.1-.06 0 .09 0l.15.08a7.6 7.6 0 011.33.91.84.84 0 001.08-.21.85.85 0 00-.07-1.09 4.26 4.26 0 00-1.53-1.08 7.14 7.14 0 00-2-.55 5.54 5.54 0 00-1.86.09 4.48 4.48 0 00-.88.27 1.75 1.75 0 00-.81.66.51.51 0 00.44.77zM127 11.28l.45-.09-.08.57c.15-.14.59-.14.78-.24a9.78 9.78 0 001-.82 12.59 12.59 0 013-1.67 19.16 19.16 0 016.31-1.26 78.22 78.22 0 0114 .89c1.13.15 1.13-1.64 0-1.79-4.81-.62-9.89-1.22-14.74-.76a20 20 0 00-6 1.43 13.83 13.83 0 00-2.67 1.52 22.06 22.06 0 01-2.2 1.68.56.56 0 00-.28.48v.21a.48.48 0 00.47.46.47.47 0 00.47-.21.35.35 0 000-.4l-.06-.07a.28.28 0 00-.51.07z" class="b"/><path d="M126.69 11.23c-1-1.66-3.34-2.6-5.12-3.11a30.65 30.65 0 00-6.53-1c-1-.06-2.29-.33-2.59.88a14.66 14.66 0 00-.25 3.68 15.7 15.7 0 001.57 7 10.24 10.24 0 005 4.9c.84.34 1.39-1 .61-1.46a9.92 9.92 0 01-4.51-4.88 16.42 16.42 0 01-1-7.83c0-.25.27-.93-.14-.73a2 2 0 01.69 0c.62 0 1.24.06 1.86.11a29.09 29.09 0 013.5.43 18.31 18.31 0 013.27 1c1.07.43 2 1.13 3 1.62.38.18.86-.2.61-.61zM153.61 8a10 10 0 001.28-1.07q.65-.57 1.35-1.08a25.15 25.15 0 012.9-1.85 19.81 19.81 0 013.07-1.31c.54-.18 1.1-.33 1.65-.46a8.82 8.82 0 001.77-.44.76.76 0 00-.18-1.38 8.62 8.62 0 00-3.58.72 21.74 21.74 0 00-3.43 1.5 19 19 0 00-3 2 9.29 9.29 0 00-2.5 2.69c-.21.43.23 1 .7.69z" class="b"/><path d="M165.3.6c.19 1.2.6 2.35.75 3.56a20.12 20.12 0 0 1 .16 3.47 16.18 16.18 0 0 1-1.9 6.83c-.47.87.86 1.65 1.32.78a18 18 0 0 0 2.08-7.49 16.51 16.51 0 0 0-.24-3.75 10 10 0 0 0-1.29-3.77.48.48 0 0 0-.88.37z" class="b"/><path d="M118.86 23c-.62 6.35 2.13 13.41 5.91 18.42a27.62 27.62 0 0015.11 10.14 24 24 0 0017.69-2.34 23.5 23.5 0 0010.92-14.6c1.87-6.72 1.71-14.45-2.4-20.35-.66-.93-2.21 0-1.55.91 3.42 4.91 4 11.11 2.8 16.87-1.22 6-4.11 11.51-9.32 15-10.05 6.65-23.4 3.7-31.05-5.21a29.15 29.15 0 01-5.13-8.89 49.93 49.93 0 01-2.14-10c-.08-.51-.8-.33-.84.12zM114.47 8.79a15 15 0 018.45 7.07c.47.89 1.8.1 1.34-.79a14.52 14.52 0 00-9.45-7.51.64.64 0 00-.34 1.23zM158.29 10.25c.55-.7 1-1.49 1.5-2.23a20.32 20.32 0 011.64-2.15 21 21 0 014-3.59c.84-.57 0-1.93-.79-1.35a22.07 22.07 0 00-4.26 3.87 21.24 21.24 0 00-1.69 2.33 9.16 9.16 0 00-1.23 2.63c-.11.44.51.91.84.49z" class="b"/><path d="M119.53 28.21c-.61 3.26-3.15 5.63-5.77 7.45a41.69 41.69 0 0 1-10.21 5.21c-7.53 2.55-16 2.08-23.8 1.9-8.06-.19-16.11-.43-24 1.33a60 60 0 0 0-20.44 8.76c-10.39 7-17.55 17.85-22.72 29.08a147.38 147.38 0 0 0-11.4 38 79.53 79.53 0 0 0-.35 24.78 30.1 30.1 0 0 0 3.46 10.57c1.85 3.21 4.32 6 6.3 9.1a26 26 0 0 1 4 11.09 15.37 15.37 0 0 1-.14 5.41 6.34 6.34 0 0 1-3.57 4.11c-2.46 1.41-4.28 3.25-4.8 6.14a10.49 10.49 0 0 0 1.51 7.6c3.49 5.27 11 5.52 16.13 2.58 5.81-3.35 8.53-10.25 9.14-16.64.73-7.68-1.65-14.89-5.69-21.33-3.8-6.06-8.66-11.65-10.9-18.55-2.51-7.75-2-16.38-1.7-24.42a113.68 113.68 0 0 1 3.2-24.22A87.72 87.72 0 0 1 25.34 77a58.4 58.4 0 0 1 11.57-15.69 30.17 30.17 0 0 1 7.25-5c1-.48.12-2-.87-1.48-5.4 2.6-9.73 6.92-13.31 11.65a79.85 79.85 0 0 0-9.46 16.68 87.81 87.81 0 0 0-6.08 20.75 156.89 156.89 0 0 0-1.71 23.72c-.06 7.63.36 15.27 3.82 22.22 3.12 6.25 7.84 11.52 11.1 17.68a29.55 29.55 0 0 1 2.5 22.36c-2 6.5-7.37 12.35-14.7 11.6a8.52 8.52 0 0 1-7.15-5 8.11 8.11 0 0 1 .7-7.89c1-1.36 2.62-1.95 4-2.87a7 7 0 0 0 2.71-3.28c1.23-3.13.74-7 0-10.16a28.71 28.71 0 0 0-4.38-9.79c-2.07-3-4.52-5.85-6.2-9.15a32.57 32.57 0 0 1-3-11.23 76.94 76.94 0 0 1-.37-12.7 115.9 115.9 0 0 1 3.74-22.1 154.44 154.44 0 0 1 5.74-18.17c4.53-11.62 10.8-23.21 20.33-31.5a55.34 55.34 0 0 1 18.55-10.38c7.58-2.54 15.37-3.19 23.31-3.09s15.92.69 23.77-.34a37.12 37.12 0 0 0 19.22-8.55 11.94 11.94 0 0 0 4.27-6.76c.12-.75-1-1.08-1.16-.32z" class="b"/><path d="M31.59 65.48c-4.4 5.08-4.32 13.29-2.69 19.43A23.88 23.88 0 0 0 33.43 94a24.19 24.19 0 0 0 9.3 6.57A32.48 32.48 0 0 0 54.89 103a52.13 52.13 0 0 0 13.18-2 43.7 43.7 0 0 1 7.7-1.34c2.5-.16 5-.09 7.53-.16 3.9-.11 9.1-.39 11.89-3.57A4.47 4.47 0 0 0 96 91a7.38 7.38 0 0 0-4.34-3.33c-4.79-1.72-10.62-1.09-15.33.57-.94.32-.54 1.82.41 1.49a24.15 24.15 0 0 1 13.07-1A7.67 7.67 0 0 1 94.16 91c1.27 1.6.54 3.47-1 4.59-3.36 2.52-8.44 2.31-12.41 2.34a54.28 54.28 0 0 0-12.7 1.4 55.91 55.91 0 0 1-12 2.08 32.59 32.59 0 0 1-11-1.57 24.88 24.88 0 0 1-9.58-5.61 20.24 20.24 0 0 1-4.79-7.78c-2.4-6.7-2.32-14.37 1.49-20.52.24-.38-.32-.83-.62-.48z" class="b"/><path d="M76.54 88.91c2.62-2 4.67-5.23 6.3-8.07s2.89-5.91 2.46-9.22c-.82-6.42-6.54-10.46-12.42-11.93-1-.24-1.39 1.27-.42 1.5C78 62.53 83.7 66.39 84 72.62s-4.88 11.1-8.19 15.72c-.35.48.36.87.74.57zM94.86 95.39a75.39 75.39 0 0010.49-1.21c2.4-.47 4.74-1.17 7.12-1.71 2.55-.58 5.15-1 7.71-1.55l9.59-1.92c.87-.17 1.74-.29 2.62-.46a16.79 16.79 0 007.21-3.4c5.42-4.3 7.77-11.14 8.17-17.86 0-.91-1.18-.92-1.47-.2a2.55 2.55 0 001.33 3.12 3.21 3.21 0 003.66-.35 7.21 7.21 0 002.13-3.9 26.67 26.67 0 00.83-6.83h-1.5a2 2 0 002.07 1.82c1.34 0 2.12-1.24 2.56-2.36a27.21 27.21 0 001.71-11.17c-.05-1-1.55-1-1.5 0a27.3 27.3 0 01-.49 6.75 26.16 26.16 0 01-.81 3 7.88 7.88 0 01-.59 1.48c-.16.28-1.37 1.35-1.45.44a.75.75 0 00-1.5 0 21.43 21.43 0 01-1.12 7.58 3.65 3.65 0 01-1.91 2.34c-.95.32-2.43-.45-2-1.58l-1.46-.19c-.34 6.08-2.37 12.27-7.1 16.35a15.39 15.39 0 01-7.55 3.62c-.73.12-1.44.25-2.16.4l-17 3.61c-2 .43-4 1.11-6.06 1.56a85.83 85.83 0 01-11.59 1.77c-.52 0-.53.83 0 .81z" class="b"/><path d="M159 46.59a18.8 18.8 0 002.7 8.72 14.18 14.18 0 006.29 5.9c5.16 2.38 12.21 1.71 16.17 6.31.63.73 1.68-.33 1.06-1.06-3.73-4.33-9.88-4.24-14.92-5.89a13.2 13.2 0 01-7.08-5.3 18.39 18.39 0 01-2-4.15c-.55-1.53-.77-3.12-1.24-4.66a.48.48 0 00-.94.13zM107.34 28.17c4.35 3.88 11.11 4.56 16.63 5.38 6.24.92 12.68 1.49 18.75-.58.75-.26.42-1.45-.32-1.19-5.92 2.1-12.26 1.55-18.36.68-2.78-.39-5.58-.79-8.31-1.44a35.27 35.27 0 01-8.11-3.22c-.22-.12-.49.18-.28.37zM181.08 14.48c-2 1.65-3.88 3.5-6 5.06a51 51 0 01-6.45 4 47.09 47.09 0 01-14.56 4.95c-.95.14-.57 1.68.41 1.47a56.24 56.24 0 0014.81-5.3 50.09 50.09 0 006.56-4.21 31.46 31.46 0 005.89-5.33.46.46 0 00-.65-.65zM118.14 41.8a18.28 18.28 0 006.13.22 39.59 39.59 0 005.93-1 37.73 37.73 0 0011.44-4.82.63.63 0 00-.64-1.09 41.87 41.87 0 01-11.14 4.65 39.25 39.25 0 01-6 1c-1.9.17-3.84.09-5.73.35-.33 0-.28.55 0 .62zM178 26.73a74 74 0 01-11.14 4.68 23.77 23.77 0 01-12.13.49.72.72 0 00-.38 1.39c8.32 2.57 17-2 24-6 .39-.22 0-.78-.35-.59zM134.63 20.6a.76.76 0 00-.53.13 2 2 0 00-.43.43 1.64 1.64 0 00-.25.94 1.73 1.73 0 00.41 1.07 1.2 1.2 0 00.41.33 1.8 1.8 0 00.72.2h-.23a1.91 1.91 0 002.11-1.34 1.8 1.8 0 00-.19-1.38 2.17 2.17 0 00-1.11-.89 1.9 1.9 0 00-.62-.12 3 3 0 00-.41 0l-.21.06a1.89 1.89 0 00-.69.42 1.67 1.67 0 00-.37.47 2.11 2.11 0 00.28 2.51 1.48 1.48 0 001 .45 1.58 1.58 0 001-.44 2.53 2.53 0 00.36-.37 1.88 1.88 0 00.27-.36 2.62 2.62 0 00.21-.45.84.84 0 00.06-.24 2.42 2.42 0 000-.47 1.82 1.82 0 00-.24-.79 2 2 0 00-1.11-.86 1.87 1.87 0 00-1.41.12 1.81 1.81 0 00-.86 1.09 1.35 1.35 0 000 .29 1.62 1.62 0 000 .31 1.77 1.77 0 00.11.6 1.8 1.8 0 00.42.7 1.7 1.7 0 00.7.44l.17.05a1.83 1.83 0 001.05-.06A2.47 2.47 0 00136 23a1.85 1.85 0 00.14-.14 2.62 2.62 0 00.24-.34 1.54 1.54 0 000-1.59 1.47 1.47 0 00-1.54-.71 1.12 1.12 0 00-.52.29 1 1 0 00-.23.3.77.77 0 00-.12.36.74.74 0 000 .39 1 1 0 00.45.58 1 1 0 00.75.1.94.94 0 00.58-.45.25.25 0 010-.07l-.15.2-.19.15-.23.1h-.26.07-.26.11l-.23-.1.12.08-.2-.15a.74.74 0 01.13.12l-.15-.19a.57.57 0 01.08.13l-.1-.23a.5.5 0 010 .13v-.26a.21.21 0 010 .11v-.26a.83.83 0 01-.06.21l.1-.23a1.74 1.74 0 01-.11.18l.15-.19a1.07 1.07 0 01-.19.18l.2-.15a1.16 1.16 0 01-.24.14l.24-.1a1 1 0 01-.29.07h.26a1 1 0 01-.24 0h.26a.8.8 0 01-.21-.05l.23.1-.18-.11.19.15a.8.8 0 01-.13-.13l.15.2a.94.94 0 01-.12-.22l.09.23a1 1 0 01-.06-.25v.26a1.31 1.31 0 010-.28v.25a.9.9 0 01.07-.27l-.1.24a.77.77 0 01.1-.18l-.15.19a1 1 0 01.15-.14l-.2.15.17-.1-.23.1a.65.65 0 01.2-.05h-.26a1 1 0 01.24 0h-.26a.9.9 0 01.27.07l-.23-.1a1.09 1.09 0 01.23.14l-.2-.15a.85.85 0 01.17.16l-.15-.2a.81.81 0 01.1.18l-.09-.23a1.6 1.6 0 010 .21v-.26a1 1 0 010 .24v-.25a1.12 1.12 0 01-.08.26l.1-.23a1.81 1.81 0 01-.2.33l.15-.19a2.06 2.06 0 01-.39.39l.2-.15a.76.76 0 01-.19.12l.23-.1h-.12.26-.1.26-.12l.23.09-.13-.08.2.15a.8.8 0 01-.13-.13l.15.19a.88.88 0 01-.14-.23l.1.23a1.38 1.38 0 01-.08-.27v.25a1.09 1.09 0 010-.36v.25a.9.9 0 01.09-.32l-.1.22.14-.25-.14.2a1.07 1.07 0 01.18-.19l-.19.15a.72.72 0 01.21-.12l-.23.09a.9.9 0 01.22-.06h-.25.28-.25a1.11 1.11 0 01.3.08l-.22-.09a1.35 1.35 0 01.26.15l-.19-.14a1.1 1.1 0 01.22.21l-.14-.18a.72.72 0 01.12.21l-.09-.21a1.55 1.55 0 01.07.23v-.23a.81.81 0 010 .22v-.24a1.46 1.46 0 010 .2l.09-.21a2.12 2.12 0 01-.12.2l.14-.18-.2.2.18-.14a1.17 1.17 0 01-.27.15l.21-.09a1.38 1.38 0 01-.27.08h.23-.34.23-.21.23a.66.66 0 01-.2-.06l.45.04a1 1 0 01-.17-.1l.16.12a.53.53 0 01-.13-.13l.12.15a.54.54 0 01-.1-.16l.07.18a.87.87 0 010-.22v.19a1.5 1.5 0 010-.3V21.57v.18a.76.76 0 01.06-.2l-.07.16a1.18 1.18 0 01.11-.19l-.09.12a.88.88 0 00.12-.15 1 1 0 01.07-.18s-.08.15 0 .09v-.05a.55.55 0 000-.53.54.54 0 00-.46-.26zM154.92 18.64a.57.57 0 00-.44-.17h-.26a1.27 1.27 0 00-.82.43 1.12 1.12 0 00-.28.54 1.83 1.83 0 000 .47 1.7 1.7 0 00.08.45 2 2 0 00.33.56 1.62 1.62 0 00.79.52 2 2 0 001 0 1.52 1.52 0 00.46-.18 1.62 1.62 0 00.39-.3 2 2 0 00.49-.84 2 2 0 000-1 1.81 1.81 0 00-.17-.46 1.64 1.64 0 00-.29-.4 2.08 2.08 0 00-.83-.53l-.27-.06a1.76 1.76 0 00-.51 0 2.17 2.17 0 00-.5.08 1.92 1.92 0 00-.46.21 2.24 2.24 0 00-.38.31 2 2 0 00-.29.41 2.29 2.29 0 00-.24 1 2.1 2.1 0 00.25 1 1.88 1.88 0 00.68.73 2 2 0 001 .29 1.33 1.33 0 00.4 0 2.24 2.24 0 00.39-.08 2 2 0 00.46-.22 1.25 1.25 0 00.59-.69 1 1 0 000-.51 2.6 2.6 0 00-.1-.25.77.77 0 00-.66-.38h-.07.23a2.09 2.09 0 00-.28 0 1.11 1.11 0 00-.48.13 2.31 2.31 0 00-.29.24l.19-.15a1.23 1.23 0 01-.25.14l.23-.09a1.92 1.92 0 01-.32.09h.25a.91.91 0 01-.33 0h.25a1.29 1.29 0 01-.28-.08l.23.1a1.09 1.09 0 01-.23-.14l.19.15a1.21 1.21 0 01-.16-.16l.15.19a.77.77 0 01-.14-.25l.09.23a1.67 1.67 0 01-.08-.3v.25a.81.81 0 010-.31v.24a1.67 1.67 0 01.08-.3l-.09.23a1.23 1.23 0 01.14-.25l-.15.19a1 1 0 01.18-.17l-.19.14a1 1 0 01.22-.13l-.22.09a1.28 1.28 0 01.28-.07h-.25a1.22 1.22 0 01.33 0h-.24a1.38 1.38 0 01.29.08l-.21-.09a1 1 0 01.26.16l-.18-.15a1.37 1.37 0 01.17.17l-.15-.18a1.2 1.2 0 01.13.21l-.09-.21a1.11 1.11 0 01.07.26v-.24a1.61 1.61 0 010 .31v-.23a1 1 0 01-.08.28l.09-.21a1.23 1.23 0 01-.14.25l.13-.18a.75.75 0 01-.15.16l.18-.14a1.13 1.13 0 01-.21.12l.2-.09a.86.86 0 01-.23.06h.23-.26.23a1.34 1.34 0 01-.27-.07l.2.08-.3-.13.2.09-.22-.13.17.13a1.06 1.06 0 01-.15-.15l.12.16a1 1 0 01-.1-.17l.08.19a.79.79 0 01-.06-.22v.2a.5.5 0 010-.17v.2-.15a1.55 1.55 0 000-.31v.19a2.33 2.33 0 01.07-.25l-.06.15c0-.09.09-.17.13-.27a.43.43 0 000-.05.29.29 0 01-.09.16s.1-.06 0 0h.06l.17-.14a.32.32 0 000-.44z" class="b"/></svg>