<svg xmlns="http://www.w3.org/2000/svg" viewBox="0 0 136.33 139.44"><defs><style>.a{fill:#c1683d}.b{fill:#dd8b6b}.c{fill:#535151}</style></defs><title>monkey</title><path d="M7.66 81.45s-9.48-23.57 1.34-39 25.1-13.66 25.1-13.66l9 2.87 6.39 5.51 3.74-9S63.84 9.4 82.35 11.39s33.93 18.5 33.93 18.5L126 44l2.21 7.49-.21 19.17.89 10.57 3.08 7 4.41 6.83-.66 10.58-3.31 16.74-2.86 8.15-9.26 6.83-7.29 1.82-13-2.18-15.64-1.32L66 123.31l-13-7-9.47-8.59-13.62-7.32-9.7-9.92z" class="a"/><path d="M5.23 33.42s-7.27 4-4 8.37 5.84 3.42 5.84 3.42L9.86 41l3.3-3.74L10.3 34zM50.73 33.09l3.3-6.61 1-2.31-1.66-3.31-3.52-3.63h-5.84l-3.2 2.75-1.1 6.5 3.75 4.19 7.27 2.42zM97.33 15.35c-.11-.33-.77-6.17-.77-6.17l2.53-5.39L104.82 1l4.19.66 4.07 2.54 1.66 6.06-1.88 5-5.29 4.63-1.87.66z" class="a"/><path d="M73.53 129l2.65-7s-2.43-26.88 11-37 22-5.07 22-5.07l11 7.27 6.83 10.36 2.93 11.44 1.32 11.24.44 6.39-8.59 9.91-7.49 2.87-11-2.21H93.14s-8.15-1.54-8.81-1.54-10.8-6.66-10.8-6.66zM67.36 53.91s.67 8.15 8.82 9.92S95.79 61 95.79 61l7.27-5.51s4.84-6.61 1.32-12.12S89 37.61 89 37.61l-12.12 2.2s-9.07 4.85-9.52 14.1zM32.33 71.54c8.82-1.1 15.21-6.61 15-11.68S35 53.25 35 53.25s-14.77.44-16.75 9.25 4.41 7.71 4.41 7.71zM51.72 31.44s-9.47-3.31-5.95-7.71 8.15 2 8.15 2zM100.63 17.34s-2.64-5.51 0-7.72a5.12 5.12 0 015.51-.62s4.19 4.19 2.21 6.83A30 30 0 01104.6 20zM10.52 39.59s-4-4.19-5.51-1.1 2 5.29 2 5.29z" class="b"/><path d="M49.52 113.62s1.76-7.05 5.73-4.41 2.42 4.85 2.42 4.85 3.08-3.08 6.61-.66 1.1 8.81 1.1 8.81l-3.3-.22zM12.94 85.2s1.33-4.41 3.31-4S20 84.1 20 84.1l1.1 7.9-2.65-1.77z" class="a"/><path d="M49.52 113.62s4.63-15.2-4-27.54-21.37-4.85-21.37-4.85l-4 9.25 2.87 4.63 6.83 5.29 9.53 4.6 4.85 3.3zM65.34 123.09l1.14-3.61-1.14-4.94-2.09-2.09-3.52.66-2 1.81-.09-2.95-1.81-2.47-1.99-.85-2.09.66-1.43 2.38-.76 2.47 2.47 1.81 4.56 2.66 5.32 2.56 3.43 1.9z" class="b"/><path d="M20.67 92.02l.38-4.66L20 84.09l-1.7-2.24-2.76-.47-2.18 1.51.09 2.29 4.66 3.61 2.56 3.23z" class="b"/><path d="M56.09 118c3.6-5.38 4.2-12.15 4.51-18.44.37-7.36.75-14.8-.3-22.13-1.92-13.28-10.3-25.56-9.19-39.31.91-11.27 9.55-21.2 20.1-24.78 11.76-4 24.62 1.28 34.28 8.11a60.09 60.09 0 0 1 22.61 31.33.62.62 0 0 0 1.19-.33A59.34 59.34 0 0 0 95.18 13.8c-6-2.49-12.49-4.16-19-3.3a32 32 0 0 0-24.9 19.93c-5 13 1.65 26 5.45 38.31A59 59 0 0 1 59.22 81a105 105 0 0 1 .18 13c-.28 7.94-.24 16.3-4.33 23.38-.39.66.6 1.22 1 .6z" class="c"/><path d="M8.49 80.9c-4.55-11.56-6-25 .09-36.28 5.11-9.43 14.86-16 25.83-14.85a21.85 21.85 0 0114.92 8c.58.75 1.61-.31 1-1-6.71-8.77-19.52-10.84-29.28-6.31-10.86 5-17.21 16.68-18 28.31a47.31 47.31 0 004.44 22.55c.25.56 1.23.16 1-.42zM77.71 39C71.21 41.54 65 49 67.07 56.36 69.24 64 78 66.19 85 65.21a32.59 32.59 0 0011.57-4c3.3-1.89 6.58-4.37 8.54-7.69 1.86-3.14 2.41-7.29.43-10.53-1.77-2.89-5.06-4.33-8.22-5.1-8.78-2.15-19.22-1.89-25.88 4.92-.67.68.38 1.73 1 1 5.39-5.42 13.64-6 20.8-4.92 2.95.43 6.12 1 8.6 2.79a7.58 7.58 0 012.61 8.9c-1.11 3.3-3.89 5.81-6.68 7.73a31.13 31.13 0 01-9.34 4.36c-6.32 1.76-14.57 1.8-18.72-4.19-4.86-7.03 1.92-15.64 8.29-18.77.39-.19.11-.87-.3-.71z" class="c"/><path d="M72.46 49.84c1.13 1.78 3.85 2.23 5.77 2.44a27.25 27.25 0 008.06-.41c4.77-.93 9.44-3.51 11.58-8 .39-.84-.86-1.58-1.26-.73-2 4.13-6.16 6.42-10.49 7.32A28.73 28.73 0 0179 51a14.43 14.43 0 01-3.26-.48c-1-.27-1.93-.81-2.94-1.09a.32.32 0 00-.35.46zM66.07 38.59a1.12 1.12 0 00.67 1.2 1.6 1.6 0 001.73-.44 2.88 2.88 0 00.61-3.12 2.51 2.51 0 00-2.53-1.48 2.24 2.24 0 00-1.51.8 4.64 4.64 0 00-.83 1.53 2.43 2.43 0 00.06 1.8 1.88 1.88 0 001.49 1 2.73 2.73 0 002.81-1.52 2.3 2.3 0 00.09-1.71 2.19 2.19 0 00-1.09-1.26 2 2 0 00-1.81.05 1.94 1.94 0 00-1 1.41 1.82 1.82 0 002.08 2 1.52 1.52 0 00.85-.39 1 1 0 00-.07-1.46 1.28 1.28 0 00-1.17-.35 1.16 1.16 0 00-.83.83 1.22 1.22 0 00.28 1.14.78.78 0 001 .06.79.79 0 00.21-1V38c0-.1-.09.18 0 .06l-.08.11a.52.52 0 01-.55.06h-.06a.52.52 0 01-.14-.35l.24-.59c-.11.11.15-.08.06 0h-.07c-.07.06.22-.06.08 0h.03-.08s-.17 0 0 0h-.1c-.09 0-.06-.07.07 0l-.14-.08c-.11-.06.06 0 .07.06l-.06-.06-.07-.07c-.06 0 .11.18 0 0s.06.2 0 0v-.08.06-.09c0-.07-.1.17 0 0v-.08c0-.09-.14.14 0 0l.07-.07c.08-.09 0 0-.06 0s.13-.09.18-.11.09 0 .11 0a.25.25 0 00.12 0h-.08H66.67c-.02 0 .28.09.13 0l.1.07c.09.05-.14-.14 0 0l.1.16s0 .07.07.07-.1-.13 0 0 .09.2.12.21-.07-.19 0-.06a.74.74 0 010 .14v.03a.81.81 0 000 .22s0 .14 0 0a.36.36 0 010 .1 1.12 1.12 0 01-.1.18v.09s.11-.14 0 0l-.17.17-.08.06c.1-.12.06 0 0 0a.78.78 0 01-.18.11s-.17.08 0 0l-.23.07h-.1a1.47 1.47 0 01-.21 0c-.18 0 .12 0 0 0H65.89s.17.09 0 0h-.1c-.13-.07.1.11 0 0l-.08-.07.06.07a.25.25 0 010-.07v-.09-.1c0-.01 0 .19 0 0v-.26c0-.16 0 0 0 0v-.14a2.17 2.17 0 01.07-.24 1.72 1.72 0 01.07-.21c0-.13 0 0 0 0a.94.94 0 01.06-.15c.08-.16.16-.31.25-.46a.86.86 0 00.07-.1c.07-.11 0 0 0 0a2 2 0 01.19-.22h.06c-.07.06 0 0 0 0l.18-.1s-.15.05 0 0h.09a.53.53 0 00.12 0c.08 0-.17 0 0 0h.37c.15 0 0 0 0 0l.19.1.08.06c.11.07 0 0 0 0l.15.15c.02.02 0 .05.07.07v.06c0 .08.09.16.13.24s0-.15 0 0a.5.5 0 010 .13v.13c0 .14 0-.13 0 0a2.44 2.44 0 010 .27v.11c0 .04 0-.14 0 0l-.06.26v.11s-.08.18 0 0c0 .08-.08.17-.12.24l-.15.23c-.06.1 0 0 0 0l-.11.13-.09.07c-.09.09 0 0 0 0l-.1.06c-.11.06.05 0-.06 0h-.13s-.11 0 0 0h-.19a.34.34 0 01-.15-.24.3.3 0 00-.58 0zM93.64 28.59a2.14 2.14 0 000 2.12 2.19 2.19 0 002 1.1 2.51 2.51 0 002-1.16 2.44 2.44 0 000-2.36A2.53 2.53 0 0095.39 27a2.82 2.82 0 00-2.48 1.08 2.25 2.25 0 001.77 3.36 2.23 2.23 0 001.5-3.73.88.88 0 00-1-.14 1.24 1.24 0 00-.62.76 1 1 0 00.44 1.11.74.74 0 00.68 0 .76.76 0 00.44-.5c-.06.18-.06.15 0 .07s.15-.36.07-.18c.08-.18-.34.26-.16.17l-1-.13s.16.18.06 0v.06c0 .09-.08-.22 0-.09a.83.83 0 010 .15c0 .17 0-.24 0 0v.1a.86.86 0 000 .17V29.36l-.08.14v.06c0 .07.16-.19 0-.06l-.09.1-.07.05s.19-.13.09-.07l-.12.08c-.17.09.2-.07 0 0h-.13c.25-.07.14 0 0 0s.17 0 0 0h-.17c.2 0 .16.07.1 0h-.08c.13.11 0 0-.05-.05s-.16-.18-.06-.05v-.06l-.07-.13c-.08-.17.05.15 0 0a1.09 1.09 0 000-.17v-.08.12a.71.71 0 000-.14v-.07-.08c0-.08-.1.18 0 0s.07-.14.08-.14-.15.17-.06.08l.07-.07a.5.5 0 00.08-.07c-.1.08-.12.09-.07.06h.06l.18-.1h-.06.09a3.74 3.74 0 01.45-.12h.11-.1.45c.09 0 .08 0 0 0a.7.7 0 01.25.05s.11 0 .13.05-.15-.08 0 0a.67.67 0 01.14.09h.07c-.15-.07-.1-.08-.06 0l.15.15c.09.09 0 0 0-.06a.18.18 0 000 .07l.09.15v.03l.06.2v.42c0 .04-.06.11 0 .16s.08-.17 0-.06v.07c0 .05-.08.1-.09.14 0-.11.09-.1 0 0l-.07.08a.69.69 0 00-.13.11c.08-.11.11-.07 0 0l-.07.05-.17.09H95.9l-.21.05s-.12 0 0 0h-.29c-.15 0 .15 0 0 0l-.4-.11c-.1 0 0 0 0 0v-.04h-.07s-.11-.1-.14-.13l-.06-.06c-.1-.1 0 0 0 0l-.11-.16a1.18 1.18 0 01-.11-.19.59.59 0 010-.08c.06.13 0 0 0 0v-.2c0-.07 0-.1 0 0a.57.57 0 010-.13v-.19c0-.08 0 .1 0 0a.5.5 0 010-.12.4.4 0 00-.72-.31zM97.8 14.18c-1.11-2.63-.46-6 1-8.39a8.36 8.36 0 016.88-4.15 7.78 7.78 0 016.91 3.45 8.92 8.92 0 01-.09 8.71 10.65 10.65 0 01-2.65 3.31 13.53 13.53 0 01-4 1.87c-1.12.4-.67 2.16.5 1.81a12.33 12.33 0 007.36-5.61 10.87 10.87 0 00.57-10.48 9.28 9.28 0 00-8.13-4.7 9.91 9.91 0 00-8.4 4.6A11.78 11.78 0 0095.9 10c-.12 1.36-.17 4.21 1.53 4.64a.34.34 0 00.37-.48zM55.19 23.62c-.48-5.46-6.9-9.32-11.87-6.78-4.69 2.39-6 9.22-2.08 12.86a11.92 11.92 0 004.14 2.36 22 22 0 002.4.69 8.81 8.81 0 002.54.4c.67-.06 1.11-1 .38-1.4a21.36 21.36 0 00-3.58-.92 13.54 13.54 0 01-3.4-1.37 6 6 0 01-3.19-5.3 7.14 7.14 0 012.68-5.32 6.29 6.29 0 016.17-.72 8.52 8.52 0 015.09 5.59c.11.38.75.33.72-.09zM30.13 53.48C25 53.93 19.76 57 17.82 62c-.83 2.12-1 4.71.34 6.66s4.05 2.63 6.42 2.94c6.21.8 13.09.62 18.41-3.11 2.26-1.59 4.4-3.87 4.92-6.68a7.17 7.17 0 00-2.52-6.6c-2.52-2.2-6-2.75-9.21-2.81a30.84 30.84 0 00-10.93 1.83c-.91.31-.52 1.76.4 1.44 4.82-1.64 10.93-2.51 15.87-.86 2.26.75 4.44 2.44 4.92 4.9.52 2.67-1.34 5.12-3.26 6.75-4.07 3.47-9.67 4.24-14.83 4-2.36-.11-5.17-.13-7.33-1.19s-2.84-3.44-2.3-5.73c1.22-5.1 6.59-8.57 11.5-9.39.35-.06.27-.66-.09-.63z" class="c"/><path d="M25.87 60a7 7 0 007.05 2.82 7.8 7.8 0 003.54-1.65 8 8 0 001.34-1.39 3.25 3.25 0 00.88-1.88.64.64 0 00-1.08-.45 6.19 6.19 0 00-.9 1.38A6.79 6.79 0 0135.64 60a6.6 6.6 0 01-2.92 1.45 7.77 7.77 0 01-6.28-1.87c-.3-.24-.81.07-.57.44zM18.46 46.09a1.15 1.15 0 00-.41.38.72.72 0 00-.11.19s-.08.18 0 .09a.86.86 0 00-.07.21 1.62 1.62 0 00.19 1.2 1.73 1.73 0 002.48.41 2 2 0 00.82-1.18 2 2 0 00-.36-1.53 2.24 2.24 0 00-2.7-.9 2.52 2.52 0 00-1.65 2.43 1.92 1.92 0 00.63 1.37 1.81 1.81 0 001.75.32c1-.32 2.25-1.36 1.83-2.52a1.69 1.69 0 00-1.18-1.1 1.46 1.46 0 00-1.55.62 1.64 1.64 0 00.16 2 1.83 1.83 0 00.31.24.93.93 0 00.75 0 1.86 1.86 0 00.76-.43 1.14 1.14 0 00.32-1.06 1.1 1.1 0 00-1.37-.73.88.88 0 00-.63.87A.75.75 0 0020 47a.55.55 0 01-.14.37.71.71 0 01-.4.23H19.25h.05c-.22-.07-.15-.08-.09 0s-.17-.14-.09-.06-.07-.1-.07-.1l-.05-.16v-.05a.49.49 0 010-.23c0-.07 0-.08 0 0s0 0 .07-.08a.15.15 0 000 .06s.16-.1 0 0H19c-.08 0 .17-.06 0 0l-.2.06.59.08c-.16-.1.12.12 0 0s.1.17 0 0v-.06s.06.2 0 .09a.14.14 0 010-.06v.06a.65.65 0 000-.14v.09a.2.2 0 000-.07v-.08s-.1.18 0 .08c.06-.09.08 0 0 0h.05c.07-.08-.06 0-.07.06h.05c.11-.07-.15.05-.06 0s-.19 0 0 0h-.09.18c-.14-.06-.11-.09-.06 0l.07.07c.07.06-.08-.14-.05-.06a.41.41 0 01.05.09c.07.1 0-.13 0 0a.32.32 0 000 .09v-.09 0c0 .09 0 0 0 0s0 .1-.06.11-.09.09 0 0l-.06.06-.17.16-.07.06c-.05 0-.09 0 0 0-.14.06-.26.18-.39.25h-.05l-.21.06h.06-.18c-.11 0 0 0 0 0l-.08-.05s-.14-.09 0 0 0-.06-.07-.07.1.15.05 0v-.12.09a.75.75 0 000-.16.29.29 0 010-.09v.06a1.34 1.34 0 010-.2v-.08c0-.08 0 .18 0 0a.94.94 0 000-.16v-.09c0-.12 0 0 0 0a1.45 1.45 0 00.1-.18l.06-.09c.07-.11-.08.09 0 0l.14-.15s.13-.08.14-.12-.12.08 0 0l.09-.06h.08s.17-.06.06 0h.28-.06.21c.14 0 0 0 0 0h.3c.02 0-.16-.08-.05 0l.15.08h.08l.14.15.05.07a1.09 1.09 0 01.08.15c0 .06 0 .07 0 0a.42.42 0 000 .12.29.29 0 00-.08.01v-.05a.61.61 0 000 .19v-.05.1a.31.31 0 010 .08c0 .12.07-.13 0 0l-.08.14v.07s.09-.11 0 0l-.13.13c-.1.09 0 0 0 0l-.08.06h-.09s-.13.06 0 0h-.2s.16 0 0 0h-.18s-.1-.06 0 0h-.07c-.1-.06 0 0 0 0l-.17-.11-.06-.06c-.07-.07 0 .07 0 0l-.05-.08-.09-.11v-.08c0-.02-.06-.1 0 0a.31.31 0 010-.08.29.29 0 010-.09c0-.08 0 0 0 0v-.25c0 .06 0 0 0 0a.55.55 0 01.13-.28c.17-.23-.15-.49-.37-.37zM40.35 43.57a.39.39 0 00-.25-.48.67.67 0 00-.48 0 1 1 0 00-.57.91 1.77 1.77 0 001 1.65 1.81 1.81 0 002.14-.22 2.18 2.18 0 00.57-2 2.23 2.23 0 00-1.15-1.61 2.3 2.3 0 00-2.27.14 2 2 0 00-.86 2.23 2.08 2.08 0 002 1.43 1.61 1.61 0 001.15-.52 1.83 1.83 0 00.37-1.02 1.81 1.81 0 00-.88-1.72 1.55 1.55 0 00-.67-.17.75.75 0 00-.76.76c0 .36 0 .74.06 1.1a.84.84 0 00.22.54.74.74 0 00.53.21.75.75 0 00.75-.75v-1.1l-.76.76h.08-.2a.5.5 0 01.13 0c.08 0-.19-.1-.1 0h.07s.1.08 0 0 .13.16 0 0v.06c.06.1-.07-.19 0-.09a1.64 1.64 0 01.07.28v-.2a1 1 0 010 .35v-.21a.5.5 0 010 .13v.12c0 .02.09-.18 0-.11v.06c-.06.09.12-.14.06-.08a.3.3 0 01-.08.08c-.06.08.13-.08.08-.06h-.06c-.07 0 .19-.06.07 0h-.16.2a1.11 1.11 0 01-.26 0h.2-.19s-.13 0 0 0-.17-.08-.17-.11.16.14.06 0L40 44c0-.05-.07-.13 0 0 0 0-.07-.1-.1-.16v-.07c.1.16.05.13 0 0a1.17 1.17 0 010-.2v.2a1.5 1.5 0 010-.3v.2l.06-.22c0-.11-.08.16 0 .06l.06-.11s.1-.14 0 0 .14-.16.16-.15-.14.1-.08.07l.1-.06h.15-.08l.22-.06h.28c.16 0-.15 0 0 0h.24s-.18-.08-.06 0l.19.12s-.16-.14 0 0l.06.06.07.08s-.11-.15-.06-.07l.11.16v.1c0 .07-.06-.17 0-.07l.06.19a.3.3 0 010 .1v-.08a1.48 1.48 0 000 .2v.35-.07l-.1.17c-.07.11.1-.11 0 0l-.08.08-.07.06c-.06.07.14-.08 0 0l-.1.06h.05-.09s-.15 0 0 0h-.27.09a2 2 0 01-.23-.06h.06-.09l-.21-.12s-.06 0 0 0l-.09-.07-.09-.09v-.05-.06l-.06-.1a.5.5 0 010-.12c0-.08 0 0 0 0v-.06-.12a.19.19 0 000-.08s0 .06 0 0a.25.25 0 000-.07c0 .05 0 0 .05 0h.06a.43.43 0 00.16-.05h-.14a.1.1 0 01-.08 0 .22.22 0 00.36-.09zM13.1 37.23a6.57 6.57 0 00-8.66-4.51 7 7 0 00-3.52 9.89 6.79 6.79 0 005.73 3.23.75.75 0 000-1.5 5.24 5.24 0 01-4.92-6.89A5.57 5.57 0 018.93 34a6.43 6.43 0 013.65 3.44c.13.31.59.08.52-.22zM74.49 128.32c1.77-3.54 2-7.94 2.4-11.83.41-4.44.62-8.91 1.44-13.3 1.45-7.8 5.22-15.47 11.94-20a20.77 20.77 0 0120.85-1.68c6.71 3.18 11.76 9.08 14.73 15.8 3.83 8.67 4.67 18.27 5.18 27.63.05.93 1.52.94 1.47 0-.45-8.69-1.06-17.64-4.14-25.87-2.71-7.25-7.39-13.74-14.09-17.78a22.47 22.47 0 00-21.2-1.51c-7.39 3.37-12.4 10.3-14.84 17.89A59.66 59.66 0 0076 112.13c-.17 2.6-.32 5.2-.6 7.78-.31 2.77-1 5.46-1.35 8.2 0 .27.34.5.49.21z" class="c"/><path d="M80.7 133c-.94-3.21.42-6.26 2.85-8.4s5.86-3.89 9-3.11c2.64.66 4.63 3 5.55 5.51 1.19 3.18 1 6.68.7 10h1.45c-.24-3.74.34-7.69 2.78-10.67a8.85 8.85 0 018.38-3.36c7.17 1.29 9.64 9.55 6 15.36-.51.82.78 1.58 1.29.76 4.12-6.6 1.2-16.08-6.9-17.57a10.25 10.25 0 00-9.6 3.47c-2.88 3.3-3.7 7.74-3.41 12a.73.73 0 001.45 0c.31-3.92.49-8.12-1.35-11.73a9.39 9.39 0 00-7.04-5.26c-6.28-.67-15.26 6.6-11.85 13.33a.38.38 0 00.7-.29zM57.32 117.15a18.76 18.76 0 012.81-3.39 3.14 3.14 0 013.72-.24 4.87 4.87 0 012 3.65 9.29 9.29 0 01-.23 2.78c-.1.46-.21.92-.34 1.37a10.51 10.51 0 00-.44 1.55c-.09.63.77 1.16 1.13.47a11.66 11.66 0 00.81-2.55 13.55 13.55 0 00.38-2.54A6.87 6.87 0 0066 114a5 5 0 00-3.18-2.13 4.58 4.58 0 00-3.59 1.13 8.83 8.83 0 00-2.59 3.8c-.13.37.42.71.68.4zM21.92 90.75a10 10 0 013.27-9.17c3-2.62 7.16-3.07 10.86-2 7.92 2.3 12 10.5 13.49 18a38.32 38.32 0 01-.22 15.2c-.19.9 1.16 1.28 1.38.38 2.2-9 1-19.84-4.4-27.59a18.25 18.25 0 00-9.87-7.41A12.81 12.81 0 0025.06 80C22 82.37 19.6 87 21 90.87c.16.44 1 .42.89-.12z" class="c"/><path d="M58.41 114.23a3.69 3.69 0 00-.26-2.46 7.71 7.71 0 00-1.6-2.53 3.77 3.77 0 00-2.29-1.24 3.93 3.93 0 00-3 1.11 4.53 4.53 0 00-1.43 3.43.73.73 0 101.44-.19 2.89 2.89 0 012.86-3.12 3 3 0 01.33.08 1.43 1.43 0 01.38.17 4.76 4.76 0 01.87.62 8 8 0 011.47 1.86 5.29 5.29 0 01.8 2.26.21.21 0 00.41.06zM100.2 15.47a6.43 6.43 0 01.19-4.69A3.74 3.74 0 01104 8.94c3.17.2 4.59 3.89 3.47 6.55a6.09 6.09 0 01-1.5 2.09 5.58 5.58 0 01-1 .78 7.79 7.79 0 00-1.2.75.66.66 0 00.46 1.12 4.88 4.88 0 002.65-1.45 7.49 7.49 0 001.77-2.29 6.62 6.62 0 00.12-5.62 5.5 5.5 0 00-4.13-3.25 5.11 5.11 0 00-4.95 1.91 6.51 6.51 0 00-.36 6.33c.24.54 1.08.15.94-.39zM50.07 30a16.45 16.45 0 00-1.68-.84 9.22 9.22 0 01-1.54-.92 3.62 3.62 0 01-1.55-2.82 2.23 2.23 0 011.47-2 4 4 0 012.92 0 8 8 0 011.84 1 8.47 8.47 0 001.86 1.26.68.68 0 00.76-1 6.19 6.19 0 00-1.81-1.52 10.9 10.9 0 00-2.05-1.09 5.41 5.41 0 00-3.9-.06A3.74 3.74 0 0044 24.79a4.47 4.47 0 001.38 3.88 6.81 6.81 0 002 1.36 8.28 8.28 0 002.48.75c.45 0 .53-.57.21-.78zM6.89 42.72a2.07 2.07 0 01-1.46-1.17 2.69 2.69 0 01-.17-.38 4.94 4.94 0 01-.15-.55.59.59 0 010-.14s0 .1 0 0a2.11 2.11 0 010-.25 2.26 2.26 0 010-.26v-.14c0-.05 0 0 0 0v-.09a2.88 2.88 0 01.15-.5l.06-.12.16-.26c.06-.08-.09.1 0 0l.08-.08a1.45 1.45 0 01.22-.21c-.06.05.1-.06.12-.08a2.48 2.48 0 01.32-.17h.13l.29-.08h.12c.19 0-.07 0 0 0a1.83 1.83 0 01.33 0H7.55c.12 0-.14 0 0 0s.4.09.6.15a2.1 2.1 0 01.49.23l.29.18.1.08h.06a1.75 1.75 0 01.24.23l.11.12c.09.1 0-.06 0 .06l.16.26a.83.83 0 01.07.13.36.36 0 010 .09c0-.07 0-.06 0 0a.68.68 0 00.81.46.67.67 0 00.46-.81 4 4 0 00-2.06-2.22A4 4 0 006 37.08a3.12 3.12 0 00-2 2.06 3.68 3.68 0 00.32 2.74 2.82 2.82 0 002.48 1.49c.36 0 .46-.57.09-.65zM13.84 84.34a2.48 2.48 0 011.7-2.26 2.7 2.7 0 012.82.65c2.12 1.89 1.79 5 1.52 7.52a.64.64 0 00.64.64.67.67 0 00.64-.64c.31-2.6.55-5.47-1.13-7.69-1.35-1.78-3.85-2.68-5.78-1.19a2.91 2.91 0 00-1.15 3.07.38.38 0 00.74-.1z" class="c"/></svg>