<svg viewBox="0 0 20.59 62.02" xmlns="http://www.w3.org/2000/svg"><path d="M13.54 58.5L4.5 43.74.98 30.3.76 19.06l1.76-7.93 3.52-7.27L11.02.72l4.5 1.16 1.28 2.96-1.19 3.52-2.51 6.51-1.77 7.94.44 10.13 4.63 12.78 2.87 13.88 1.32 2.42z" fill="#a54916"/><path d="M17.18 47.05a49.35 49.35 0 0 1-4.32-11.83 42.17 42.17 0 0 1-.69-12.33 39.74 39.74 0 0 1 3.14-12.37c1.32-3 3.65-6.41.46-9.11-2.56-2.17-6-1.65-8.5.33C4.2 4.2 2.44 8.17 1.42 11.86c-2.16 7.78-1.68 16.45.24 24.22A49.19 49.19 0 0 0 14.43 59.3c.55.55 1.36-.28.84-.84A51.81 51.81 0 0 1 1.94 16.24 25.51 25.51 0 0 1 6 5.18c2-2.77 6-5.47 9.06-2.62 1.75 1.61.88 3.65 0 5.47A40.71 40.71 0 0 0 13 13a41.53 41.53 0 0 0-2.08 10.65c-.52 8 1.21 16.91 5.8 23.66a.3.3 0 0 0 .51-.3z" fill="#535151"/></svg>