<svg viewBox="0 0 38.5 85.85" xmlns="http://www.w3.org/2000/svg"><path d="M.77 17.33s2.49 10.06 7.31 15.44 12.56 17.52 12.56 17.52 5.65 10.76 3.86 18.07-5.24 13.93-2.76 15.31a10.59 10.59 0 0 0 5.93.82S37.6 78.29 37.88 67s-4.56-21.79-4.56-21.79L26.29 27l-.83-21.67S.22-12.6.77 17.33z" fill="#6da3e3"/><path d="M25 7.57C18 29.84 41.59 48.71 36.11 71A20.05 20.05 0 0 1 29 82.4c-1.58 1.19-4 2.39-6 1.54-3-1.26-.87-5 .12-6.9 5.11-9.73 2.24-20.87-3.27-29.75-3.24-5.2-7.33-9.73-11-14.57C5.24 28.09 2 22.9 1.7 16.91c-.05-1.09-1.75-1.1-1.7 0 .54 11.32 10.1 19.33 16.22 28 3.34 4.72 6.2 9.89 7.37 15.61a26 26 0 0 1 .35 8.79A27.11 27.11 0 0 1 21 77.48c-1 2-1.89 4.57-.41 6.63a4.94 4.94 0 0 0 4.95 1.65c4.38-.69 7.88-4.67 9.88-8.38 5-9.4 3.13-20.32-.43-29.84-4.72-12.65-12.59-25.75-9.26-39.77a.38.38 0 0 0-.73-.2z" fill="#535151"/></svg>