<svg height="185.67" width="425.88" xmlns="http://www.w3.org/2000/svg"><path d="M85.09 123.57l19.19-3.61 42.38-10.26 26.04-6.66-.76 26.99-4.37 28.32-4.94 20.91-4.37 4.75-5.32-.19-15.21-7.6-25.28-19.2L94.4 138.4z" fill="#fcd533"/><path d="M303.38 59.07l-71.69 26.42 17.79 22.12 24.71 19 17.3 9.12 8 2.85 2.85-1.14 1.33-4.56 3.23-23.75-.38-26z" fill="#ee688e"/><path d="M401.7 13.49l-53.23 26.2c11.4 15.42 24.88 29.15 41.11 39.38 2.55 1.6 5.43 3.19 8.4 2.71.6-1.19 1.41-2.36 2-3.54 2.3-4.52 1.85-10.46 2.59-15.47 2.43-16.02.86-33.18-.87-49.28z" fill="#fcd533"/><path d="M14 121.74a13.7 13.7 0 0 1 12.9 8.54 13.47 13.47 0 0 1-4 14.85 13.77 13.77 0 0 1-15.47 1c-11.02-6.7-6.37-23.97 6.57-24.39z" fill="#6da3e3"/><g fill="#535151"><path d="M7.17 122.75a11.15 11.15 0 0 0-3.88 3A14.85 14.85 0 0 0 1 129.88a14.55 14.55 0 0 0-.28 9.7 15.33 15.33 0 0 0 15.69 9.91 15.11 15.11 0 0 0 13.09-13.94c.42-7-5.1-13.54-11.84-14.91C10.19 119.13 1 124.71.7 132.78a1.08 1.08 0 0 0 2.12.28 14.1 14.1 0 0 1 4.68-7.3 12.19 12.19 0 0 1 7.88-2.67 12.41 12.41 0 0 1 11.34 10.38c.77 5.79-3.44 11.6-9 13.13a12.86 12.86 0 0 1-14.13-6c-3.24-5.75-.71-13.07 4.2-17 .49-.39-.13-1.08-.64-.82z"/><path d="M28.89 133.38c13.41-1.19 26.76-3.57 40-5.83q20.33-3.48 40.51-7.76 40.2-8.46 79.7-19.81 39.28-11.31 77.72-25.36t75.77-30.8Q380.09 27 416.31 7.59q4.43-2.38 8.83-4.8c1.69-.93.18-3.52-1.52-2.59q-35.85 19.67-73 36.75t-75.48 31.44q-38.26 14.37-77.5 26-39 11.61-78.78 20.48c-26.6 6-53.41 10.82-80.33 15.1-3.3.53-6.58 1.07-9.87 1.7-.93.17-.73 1.76.23 1.67z"/><path d="M84.83 125.43a111.86 111.86 0 0 0 9.55 13.9 154.24 154.24 0 0 0 11.16 12.8 158.23 158.23 0 0 0 25.76 21.35 155.19 155.19 0 0 0 14.63 8.6c4.58 2.37 11 5.92 15.54 1.46a14.47 14.47 0 0 0 3.26-6.43c.91-3.11 1.74-6.26 2.51-9.41q2.4-9.76 4-19.7a246.33 246.33 0 0 0 3-44.74c-.05-1.93-3.06-1.93-3 0a243.77 243.77 0 0 1-2 38.19q-1.26 9.41-3.26 18.69a153.93 153.93 0 0 1-4.54 17.72c-.77 2.23-2 4.61-4.61 4.94-2.77.35-5.59-1.24-8-2.43a158.3 158.3 0 0 1-14.06-8 159.17 159.17 0 0 1-25.21-20 165.67 165.67 0 0 1-12.21-13.17c-3.89-4.73-7.34-9.74-10.88-14.73a1 1 0 0 0-1.64 1zm145.98-39.14c5.42 9 12.72 17.07 20.34 24.24a144.08 144.08 0 0 0 25.17 19 141.14 141.14 0 0 0 14 7.3c4 1.81 9.4 5.09 13.08.9 1.77-2 1.83-5 2.23-7.54.49-3.09.91-6.18 1.27-9.29.73-6.37 1.19-12.78 1.34-19.2A219.9 219.9 0 0 0 305 58.82c-.3-1.71-2.91-1-2.61.72a214.59 214.59 0 0 1 .26 72.57c-.37 2.18-.78 4.65-3.43 5a5.91 5.91 0 0 1-3-.73c-1.19-.48-2.38-1-3.55-1.51a142.38 142.38 0 0 1-13.38-6.8 145.41 145.41 0 0 1-24.37-17.59 143.16 143.16 0 0 1-11.73-11.77c-3.79-4.28-7.24-8.82-10.73-13.36-.7-.91-2.23-.12-1.6.93zm116.57-45.6c4.79 7.38 10.93 14 17.22 20.1a167.46 167.46 0 0 0 20.45 16.94c1.76 1.24 3.54 2.46 5.35 3.61a11.77 11.77 0 0 0 5.49 2.11c4.75.29 5.58-4.78 6.29-8.35a177.83 177.83 0 0 0 1.29-62.4c-.25-1.57-2.64-.91-2.39.66a175.7 175.7 0 0 1-.15 55.45q-.57 3.43-1.26 6.84c-.35 1.68-.55 4.36-2.3 5.21s-4-.42-5.46-1.33c-1.7-1-3.35-2.18-5-3.32a167.14 167.14 0 0 1-19.51-15.8c-6.81-6.43-12.77-13.54-18.91-20.59-.53-.62-1.57.19-1.13.87z"/></g></svg>