<svg height="200.25" width="413.32" xmlns="http://www.w3.org/2000/svg"><path d="M244.05 114.19s-3.71 28.8-1.14 42.19 12.54 39.35 12.54 39.35l5.13 3.42s28.51-14 40.2-27.66 26.51-33.64 26.51-33.64l-51.88-14.54z" fill="#fcd533"/><path d="M126.31 68.58l29.36 13.11 41.34 15.97-7.7 13.11-20.24 21.95-23.09 15.4-9.98 3.42-6.55-2.85-4.28-19.1-1.71-30.22z" fill="#ee688e"/><path d="M24.44 16.41s-4 25.47-3.23 37.63 4.56 31.74 4.56 31.74l2.66 5.89 5.51 1.52 11.22-8L66.06 66 82 47.2 43.26 26.48z" fill="#fcd533"/><path d="M384.73 146.42a13.87 13.87 0 1 1 19.54 17.91c-11.51 6.73-25.27-5.87-19.54-17.91z" fill="#6da3e3"/><g fill="#535151"><path d="M395.25 139c5.38.24 10.46 2.09 13.4 6.89a12.68 12.68 0 0 1-1.26 14.46 12.2 12.2 0 0 1-13.71 4.07c-4.65-1.58-8.52-5.82-8.83-10.84a13.62 13.62 0 0 1 8.78-13.38c1.82-.69 1.12-3.54-.83-3-6.14 1.77-10.39 7.82-11.05 14-.7 6.43 3.14 12.47 8.84 15.28a15.32 15.32 0 0 0 17.58-2.48c4.64-4.43 6.58-11.47 4-17.46s-10.42-11.46-17.13-9.1a.78.78 0 0 0 .2 1.52z"/><path d="M.28 1.15c22.07 15.19 45.64 28.4 69.3 40.94s47.69 24.13 72.18 34.82 49.4 20.49 74.63 29.33S267.17 123 293 129.87s52.09 12.92 78.48 17.85q4.83.9 9.69 1.76c2 .36 2.91-2.76.86-3.12q-39.47-7-78.34-16.93t-76.84-22.8q-38-12.82-74.87-28.47t-72.56-34c-23.76-12.25-47-25.5-70-39.06Q5.17 2.56.9.09C.21-.31-.36.71.28 1.15z"/><path d="M242.28 115.28a152.62 152.62 0 0 0 10.18 77.56c1 2.53 1.94 5 4.47 6.42a7.9 7.9 0 0 0 7 .3 106 106 0 0 0 15.12-8.62 149.36 149.36 0 0 0 26.6-22.22 147.34 147.34 0 0 0 22.85-31.58c.91-1.69-1.67-3.21-2.58-1.51a145.48 145.48 0 0 1-43.74 49.66 146.75 146.75 0 0 1-13.72 8.71c-1.22.67-2.44 1.33-3.68 2a11.26 11.26 0 0 1-3.5 1.48 5.2 5.2 0 0 1-5.34-3.12 119.28 119.28 0 0 1-6.52-18 151.62 151.62 0 0 1-4.89-61.07c.18-1.44-2.06-1.41-2.25 0zM125.32 69.79a168.62 168.62 0 0 0-2.88 37.39 183.7 183.7 0 0 0 4.72 37.15c.56 2.33 1.34 4.83 3.2 6.46a8.41 8.41 0 0 0 6.68 1.8 24.7 24.7 0 0 0 7.36-2.43c2.32-1.08 4.61-2.24 6.85-3.48a117.53 117.53 0 0 0 45.95-46.11c.87-1.6-1.57-3-2.45-1.43a115 115 0 0 1-40 42.22 109.76 109.76 0 0 1-13 7c-2.12 1-4.6 1.86-7 1.57-2.65-.33-4-2.46-4.65-4.82a120.66 120.66 0 0 1-3.27-16.88c-.85-5.86-1.39-11.78-1.67-17.7a212.23 212.23 0 0 1 2.29-40.13c.21-1.4-1.89-2.06-2.18-.6zM23.51 16.24A100.72 100.72 0 0 0 21 31.6c-.55 5.15-.86 10.34-.93 15.52a169 169 0 0 0 2.45 31c.43 2.49.88 5 1.45 7.45A15.65 15.65 0 0 0 26.15 91c2.48 3.57 6.65 3.94 10.39 2.21 4.29-2 7.81-5.82 11.26-9q5.61-5.13 11-10.48 12.36-12.16 23.67-25.3c1.1-1.28-.76-3.16-1.87-1.87A404 404 0 0 1 39.93 87.8c-2.69 2.34-7.43 5.81-10.84 2.8a9.58 9.58 0 0 1-2.5-4.78c-.6-2.18-1-4.43-1.42-6.65a170.8 170.8 0 0 1-2.87-29.42c-.08-5.58.13-11.16.6-16.73S24.35 22 25 16.45c.11-.87-1.28-1-1.5-.21z"/></g></svg>