<svg viewBox="0 0 22.69 21.79" xmlns="http://www.w3.org/2000/svg"><g fill="#fff"><path d="M4.69 13.66a11.84 11.84 0 0 0-1.14 5.62 51 51 0 0 0 5.89-2.11 20.73 20.73 0 0 0 7.18 4.06c-.05-2.38.1-4.7.06-7.07a18.52 18.52 0 0 0 5.62-5.63 27.22 27.22 0 0 0-6.75-1.11A12.09 12.09 0 0 0 11.66.54a17.44 17.44 0 0 0-4.55 6.14A8.26 8.26 0 0 0 .67 8.14a12.94 12.94 0 0 0 4.02 5.52z"/><path d="M.55 7.94a15.1 15.1 0 0 1 6.23-.58c.71.08.89-1.16.17-1.26a11.52 11.52 0 0 0-6.74 1 .44.44 0 0 0 .34.8z"/><path d="M12 0C9.64 1.11 7.67 4 6.83 6.37c-.2.58.73 1 1 .42A21.67 21.67 0 0 1 9.68 3.5c.8-1.1 1.81-2 2.65-3A.27.27 0 0 0 12 0z"/><path d="M11.56.68c.51 1.09 1.34 2 1.88 3.11a15.81 15.81 0 0 1 1.15 3.75c.15.67 1.29.54 1.22-.16-.26-2.42-1.6-5.87-3.9-7a.26.26 0 0 0-.35.35z"/><path d="M22.62 8.36a8.78 8.78 0 0 0-7.16-1.21.59.59 0 0 0 .15 1.16c1.17 0 2.31-.11 3.48 0s2.23.42 3.37.45a.24.24 0 0 0 .16-.4zM.27 7.87a6.19 6.19 0 0 0 1.59 3.51c.74.92 1.89 2.21 3.13 2.33a.41.41 0 0 0 .35-.61c-.67-.88-1.79-1.36-2.55-2.19A28.7 28.7 0 0 1 .71 7.75a.24.24 0 0 0-.44.12z"/><path d="M3.7 19.45a15.67 15.67 0 0 0 .66-2.66c.27-1 .67-2 1-3a.48.48 0 0 0-.87-.36c-.82 1.53-1.66 4.24-1 6 0 .1.19.15.24 0z"/><path d="M3.6 19.87a10 10 0 0 0 5.74-2.43c.66-.56-.28-1.49-.94-1a21.4 21.4 0 0 1-4.91 3c-.2.08-.1.42.11.4z"/><path d="M16.79 20.94c-1.15-.79-2.56-1.25-3.79-1.94s-2.41-1.5-3.59-2.3c-.55-.37-1.25.51-.71.93 2.09 1.64 5.09 3.67 7.78 4a.4.4 0 0 0 .31-.73z"/><path d="M17.18 21.39c.22-2.26.44-5.27-.28-7.44a.36.36 0 0 0-.71.09 25.08 25.08 0 0 0 .14 3.67v3.68a.42.42 0 0 0 .84 0z"/><path d="M22.31 8.47c-1.12.34-2 1.46-2.81 2.25a15.32 15.32 0 0 1-3.05 2.64c-.83.47-.1 1.66.74 1.27a10.49 10.49 0 0 0 2.87-2.73c.83-.93 2.12-2 2.45-3.23a.16.16 0 0 0-.2-.2z"/></g></svg>