<svg viewBox="0 0 25.12 14.92" xmlns="http://www.w3.org/2000/svg"><path d="M.75 11.84S7.88-5.09 23.87 3.27C19.7 17.6 1.65 14.48.75 11.84z" fill="#76912c"/><g fill="#535151"><path d="M.85 12a2.92 2.92 0 0 0 1.6-1.72 15.91 15.91 0 0 1 1.61-2.73 15 15 0 0 1 5.33-4.47 14.43 14.43 0 0 1 7.13-1.49 14.7 14.7 0 0 1 3.67.63A28.86 28.86 0 0 1 24 3.9c.7.33 1.61-.59.9-1.18A14 14 0 0 0 17.7.1a15.94 15.94 0 0 0-7.61 1 16.6 16.6 0 0 0-5.73 3.8 16 16 0 0 0-3.05 4.31c-.25.52-.43 1.28-1 1.55S.13 12.28.85 12z"/><path d="M.34 12.07a13.24 13.24 0 0 0 6.87 2.69 16.52 16.52 0 0 0 7.58-.7A16.82 16.82 0 0 0 24.85 4.6c.31-.77-1-1.34-1.36-.57a16.07 16.07 0 0 1-9.22 8.79 15.59 15.59 0 0 1-6.71.75C5.07 13.31 3 12.27.77 11.34c-.41-.17-.74.45-.43.73z"/><path d="M12.44 8.69A21.72 21.72 0 0 0 18 7.1a23.35 23.35 0 0 0 5-2.74c.61-.47.08-1.49-.62-1.07A42.78 42.78 0 0 1 17.49 6a44.77 44.77 0 0 1-5.29 1.84.44.44 0 0 0 .24.85z"/></g></svg>