<svg viewBox="0 0 13.02 23.52" xmlns="http://www.w3.org/2000/svg"><path d="M4.52 22.63S-4.92 8.85 8.14.86c7.99 5.81 2.91 23.22-3.62 21.77z" fill="#76912c"/><g fill="#535151"><path d="M4 21.54C1.52 18.36.93 13.59 1.63 9.7A11.06 11.06 0 0 1 4 4.46a9.9 9.9 0 0 1 4.53-2.9c.65-.24.63-1.39-.18-1.31C4 .66 1 5.21.29 9.14a19.69 19.69 0 0 0 .09 7.18 10.71 10.71 0 0 0 2.79 6.05c.56.53 1.28-.25.82-.83z"/><path d="M3.62 23.31c5 1.4 8.4-4.59 9.13-8.61A17.72 17.72 0 0 0 8.81.2C8.3-.39 7.46.46 8 1.05a16.51 16.51 0 0 1 3.6 12.71c-.55 4.17-3.12 8.8-7.86 8.7a.43.43 0 0 0-.12.85z"/><path d="M6.23 11.2a19.62 19.62 0 0 0-1.78 5.44 26.36 26.36 0 0 0-.39 2.79 9.47 9.47 0 0 0 0 2.91.58.58 0 0 0 1.11 0 24.35 24.35 0 0 0 .13-2.71 23.73 23.73 0 0 1 .35-2.78 46.85 46.85 0 0 1 1.45-5.31.45.45 0 0 0-.82-.34z"/></g></svg>