<svg viewBox="0 0 18.57 14.99" xmlns="http://www.w3.org/2000/svg"><path d="M.62 13.86C1.39-.82 17.62.72 17.62.72s.77 13.92-17 13.14z" fill="#76912c"/><g fill="#535151"><path d="M1 13.72a18.17 18.17 0 0 1 1.37-5.26 10.84 10.84 0 0 1 3.82-4.05 17.4 17.4 0 0 1 5.36-2.64 26 26 0 0 1 6.36-.25c.9 0 .87-1.3 0-1.38a21 21 0 0 0-7 .34A19.11 19.11 0 0 0 5 3.57a11.22 11.22 0 0 0-3.84 4.49 10.24 10.24 0 0 0-1.08 5.66.48.48 0 0 0 .91 0z"/><path d="M.33 14.26a9.93 9.93 0 0 0 5.93.52 16 16 0 0 0 5.9-2.19 13.33 13.33 0 0 0 4.47-4.3 13.25 13.25 0 0 0 1.51-6.81.75.75 0 0 0-1.5 0c-.24 2.09-.21 4.17-1.33 6a12.05 12.05 0 0 1-4.13 3.9 15.52 15.52 0 0 1-5 1.92 50.84 50.84 0 0 1-5.65.34c-.28 0-.45.43-.16.58z"/><path d="M10.63 7.06a19.53 19.53 0 0 0 1.9-1.26c.64-.44 1.28-.89 1.91-1.35l1.86-1.32.89-.65a2.6 2.6 0 0 0 .9-.81.48.48 0 0 0-.53-.7 2.56 2.56 0 0 0-.95.65l-.84.72c-.59.5-1.19 1-1.81 1.48s-1.23.94-1.85 1.41a22.4 22.4 0 0 0-1.84 1.36c-.27.24.07.62.36.47z"/></g></svg>