<svg viewBox="0 0 29.78 12.45" xmlns="http://www.w3.org/2000/svg"><path d="M2.32 6.74a.93.93 0 0 1-.69.09 1.08 1.08 0 0 1-.58-.4c-.05-.06-.14 0-.1.06a.83.83 0 0 0 .26.33 1.18 1.18 0 0 0 .38.18 1.07 1.07 0 0 0 .8-.13c.07 0 0-.15-.07-.11z" fill="#535151"/><path d="M28.75 5.85C14.06 19 .92 6.63.92 6.63S17.93-5 28.75 5.85z" fill="#76912c"/><g fill="#535151"><path d="M1.67 6.05c-.36-.16-.42.06-.75 0a.58.58 0 0 0-.7.4C0 7.62 1 8.26 1.92 8.86a20.23 20.23 0 0 0 3.73 2 22.34 22.34 0 0 0 8.28 1.6A23.42 23.42 0 0 0 22.26 11c2.5-.93 5.45-2.34 7.15-4.47.45-.56-.13-1.57-.85-1.09-2.13 1.41-4 3-6.39 3.91a22.64 22.64 0 0 1-7.54 1.55 22.7 22.7 0 0 1-7.45-1 21.67 21.67 0 0 1-3.55-1.51 9.22 9.22 0 0 1-1.52-.9 2.12 2.12 0 0 1-.79-1.07c-.11-.36-.39-.19.18 0 .23.09.4-.3.17-.41z"/><path d="M1 7.26a22.8 22.8 0 0 1 13.55-5.74 21 21 0 0 1 7.25.94 26.06 26.06 0 0 1 6.85 3.59c.7.47 1.53-.61.9-1.17-4-3.55-10-5.16-15.21-4.84A21.36 21.36 0 0 0 .18 6.4a.6.6 0 0 0 .82.86z"/><path d="M16 6.45a31.22 31.22 0 0 0 5.63.29c.92 0 1.84-.14 2.75-.26a12.48 12.48 0 0 0 2.77-.55c.56-.21.53-1.16-.15-1.12a26.68 26.68 0 0 0-2.68.42c-.93.15-1.86.26-2.79.35-1.84.18-3.69.35-5.53.35-.34 0-.32.48 0 .52z"/></g></svg>