<svg viewBox="0 0 12.5 23.48" xmlns="http://www.w3.org/2000/svg"><path d="M4 22.64s-5.65-4.52-2.87-13.79c2.18-7.26 7.26-8 7.26-8s5.08 6.53 2.9 13.06-6.53 8.71-6.53 8.71z" fill="#76912c"/><g fill="#535151"><path d="M8 .08C6.19.53 4.46 2.31 3.33 3.74A15.29 15.29 0 0 0 .17 15.61a15 15 0 0 0 .92 3.48 5.67 5.67 0 0 0 1.51 2.57c.4.3.82-.2.75-.59a14.92 14.92 0 0 0-1.14-2.65 15.13 15.13 0 0 1-.75-2.81 14.35 14.35 0 0 1 .34-6.25 15.06 15.06 0 0 1 2.5-5 19 19 0 0 1 1.85-2.04c.67-.64 1.49-1.17 2.1-1.85A.23.23 0 0 0 8 .08z"/><path d="M8.19.74c2.22 3.89 3.75 8.47 2.74 13-.81 3.68-3.34 7.21-7.08 8.28-.94.26-.49 1.78.4 1.44a12.92 12.92 0 0 0 7.85-9.06c1.18-4.86-.38-10-3-14.14a.5.5 0 0 0-.86.51z"/><path d="M6.54 9.4a30.58 30.58 0 0 0-1.91 6.19 44.29 44.29 0 0 0-1 6.47c-.06.84 1.22.83 1.3 0a57.83 57.83 0 0 1 .82-6.27c.4-2 1-4.06 1.45-6.09.09-.4-.51-.71-.7-.3z"/></g></svg>