<svg viewBox="0 0 22.93 13.97" xmlns="http://www.w3.org/2000/svg"><path d="M1.25 5.76s1.45 8 11.61 7.25 9.43-4.35 9.43-4.35S20.11 2.85 15 1.4a17 17 0 0 0-10.16.73z" fill="#76912c"/><g fill="#535151"><path d="M22.93 9.11C22.36 4.66 18.11 1 13.83.19A11.78 11.78 0 0 0 7.07 1 10.77 10.77 0 0 0 1.7 5.53c-.33.68.57 1.53 1.12.87a13.44 13.44 0 0 1 4.46-3.89 10.56 10.56 0 0 1 6.18-1c4.29.69 7.15 3.85 8.76 7.69.14.33.77.35.71-.1z"/><path d="M22.45 9.37c-2.07.71-4 1.76-6.12 2.37a15.77 15.77 0 0 1-6.75.63C6 11.81 2.54 9.53 1.5 5.94a.76.76 0 0 0-1.5.41c1.16 4 4.86 6.68 8.85 7.4a17.94 17.94 0 0 0 13.9-3.83.33.33 0 0 0-.33-.55z"/><path d="M11.74 7.18A9.75 9.75 0 0 0 9 6.14a23.24 23.24 0 0 0-2.87-.61 27.87 27.87 0 0 0-2.88-.32l-1.4-.06c-.52 0-1-.07-1.41.34a.56.56 0 0 0 0 .8 1.44 1.44 0 0 0 1.21.3h1.41c1 0 2 .09 2.93.19s1.9.25 2.84.42a22 22 0 0 0 2.77.48.27.27 0 0 0 .14-.49z"/></g></svg>