<svg viewBox="0 0 21.19 13.2" xmlns="http://www.w3.org/2000/svg"><path d="M.52 2.75s12.37-7 20.09 6.18C5.16 20.52.52 2.75.52 2.75z" fill="#76912c"/><g fill="#535151"><path d="M.33 2.4c-.67.6-.15 2.07.08 2.81a10.72 10.72 0 0 0 1.5 3A11.92 11.92 0 0 0 7 12.33c4.66 1.92 10.17.51 13.87-2.74.77-.68-.35-1.78-1.13-1.13-3.34 2.81-8 4.13-12.22 2.53a10.62 10.62 0 0 1-4.7-3.61 9.57 9.57 0 0 1-1.39-2.74c-.22-.71-.12-1.86-.81-2.27a.24.24 0 0 0-.29 0z"/><path d="M.85 2.69a17.84 17.84 0 0 1 5.09-1.21 16.63 16.63 0 0 1 5.47.7 19.85 19.85 0 0 1 4.85 2.21 10.38 10.38 0 0 1 3.52 3.81.76.76 0 0 0 1.38-.58 8.66 8.66 0 0 0-3.62-4.22A20.2 20.2 0 0 0 12 .78C8.34-.31 3.53-.56.46 2a.4.4 0 0 0 .39.67z"/><path d="M8.23 6.91a48.53 48.53 0 0 0 5.53 1.86c1.75.5 3.74 1.37 5.58.9.81-.21.46-1.43-.35-1.25a5.56 5.56 0 0 1-2.65-.24c-.86-.22-1.71-.46-2.56-.69a50.61 50.61 0 0 0-5.3-1.17c-.33-.05-.62.43-.25.59z"/></g></svg>