<svg viewBox="0 0 14.64 26.04" xmlns="http://www.w3.org/2000/svg"><path d="M2.12.35c-6.14 15.8 10.1 25.1 10.1 25.1S19.65 10.79 2.12.35z" fill="#76912c"/><g fill="#535151"><path d="M.45 2.36c-1.09 4.5-.1 9.45 1.89 13.57S7.77 24.16 12 26c.81.35 1.5-.73.71-1.21a26.36 26.36 0 0 1-5.34-3.93 22.21 22.21 0 0 1-3.87-5.4 23.16 23.16 0 0 1-2.19-13c.05-.5-.75-.6-.87-.11z"/><path d="M13.26 25.43c1.28-2.22 1.47-5.12 1.34-7.62a20.62 20.62 0 0 0-1.83-7.61A20.79 20.79 0 0 0 2.59.08C1.72-.33 1 1 1.83 1.37a19.74 19.74 0 0 1 9.5 9.24 19.35 19.35 0 0 1 1.88 7.2c.15 2.54-.44 4.92-.7 7.42 0 .41.56.52.75.2z"/><path d="M6.36 10.73c.7 2.2 1.38 4.41 2.12 6.6.37 1.1.74 2.19 1.12 3.29.32.92.52 2.25 1.25 2.93a.39.39 0 0 0 .66-.27 3.37 3.37 0 0 0-.34-1.55l-.6-1.64A88.56 88.56 0 0 0 9.41 17c-.79-2.14-1.65-4.26-2.48-6.38-.14-.34-.69-.21-.57.16z"/></g></svg>