<svg viewBox="0 0 20.3 24.04" xmlns="http://www.w3.org/2000/svg"><path d="M19 23.22S-2.75 20.33.9 1.22C17-.95 21 22.21 19 23.22z" fill="#76912c"/><g fill="#535151"><path d="M19.23 22.94A35.9 35.9 0 0 1 12 20.81a19.59 19.59 0 0 1-6.1-4.39A16.33 16.33 0 0 1 1.81 2.2C2 1.26.57.86.37 1.81a17.52 17.52 0 0 0 4.19 15.24 19.67 19.67 0 0 0 6.63 4.79 17.7 17.7 0 0 0 8 1.78c.37 0 .49-.59.09-.68z"/><path d="M19.69 23.91c1.32-2.23.2-5.68-.66-7.88a48.87 48.87 0 0 0-3.86-7.81 15.22 15.22 0 0 0-5.5-5.37A35.35 35.35 0 0 0 2.08 0a.74.74 0 0 0-.4 1.43 34.78 34.78 0 0 1 7 2.45 14 14 0 0 1 5.46 5.16 50.76 50.76 0 0 1 3.44 6.68 21 21 0 0 1 1.34 4.16c.26 1.31.1 2.63.32 3.93a.27.27 0 0 0 .5.07z"/><path d="M9.94 14.87c1.29 1.38 2.78 2.59 4.15 3.9.67.64 1.33 1.29 2 1.94.34.34.68.67 1 1s.67.77 1 1.09a.71.71 0 0 0 1-1 11.91 11.91 0 0 0-1-1l-1-1c-.7-.68-1.42-1.34-2.15-2a35.39 35.39 0 0 0-4.49-3.62c-.42-.27-.84.32-.51.67z"/></g></svg>