<svg viewBox="0 0 24.91 12.8" xmlns="http://www.w3.org/2000/svg"><path d="M1.48 7.82s8 5.8 16 3.62S24 4.19 24 4.19 18.9-.17 13.82.56 2.21 4.91 2.21 4.91z" fill="#76912c"/><g fill="#535151"><path d="M24.89 5.86C23.48 1 17.35-.48 12.93.13a29.48 29.48 0 0 0-8 2.43C3.12 3.36.6 4.87.6 7.09a.62.62 0 0 0 1.15.31 9.56 9.56 0 0 1 1.72-2.23 10.85 10.85 0 0 1 2.62-1.46 30.51 30.51 0 0 1 6.72-2c4.52-.76 8.92.52 11.49 4.45a.32.32 0 0 0 .59-.25z"/><path d="M23.56 5.54a10.23 10.23 0 0 1-9.32 5.81 17 17 0 0 1-7-1.59c-1.07-.45-2.11-1-3.14-1.53A23.94 23.94 0 0 0 .89 6.51a.7.7 0 0 0-.68 1.17 18.19 18.19 0 0 0 3.51 2.07 36.72 36.72 0 0 0 3.72 1.71A16.91 16.91 0 0 0 15 12.74c3.93-.37 8.45-2.68 9.18-6.92.06-.37-.47-.68-.65-.28z"/><path d="M15.73 5.46A35.44 35.44 0 0 0 .61 7.12c-.9.3-.54 1.7.39 1.43a60.17 60.17 0 0 1 14.73-2.31.39.39 0 0 0 0-.78z"/></g></svg>