<svg viewBox="0 0 20.07 14.33" xmlns="http://www.w3.org/2000/svg"><path d="M.57 12.59s3.09-17 18.55-10.82C14.48 17.22.57 12.59.57 12.59z" fill="#76912c"/><g fill="#535151"><path d="M.79 12c.41-.73.55-1.6.89-2.37a13.72 13.72 0 0 1 1.23-2.28 12.73 12.73 0 0 1 4-3.8 14.55 14.55 0 0 1 5.87-2 14.73 14.73 0 0 1 3 0c1.09.09 2.16.5 3.24.54a.67.67 0 0 0 .31-1.24 8 8 0 0 0-3.25-.77 15.2 15.2 0 0 0-3.63.06 14.61 14.61 0 0 0-6.23 2.23 14.24 14.24 0 0 0-4 4.06A13.24 13.24 0 0 0 .83 9a6.37 6.37 0 0 0-.64 2.8.33.33 0 0 0 .6.16z"/><path d="M.13 13.23c4.16 2 9.43 1 13.22-1.37a16.49 16.49 0 0 0 4.52-4.29c1.26-1.74 2.6-4.13 2.09-6.34a.73.73 0 0 0-1.43.19c-.08 3.93-3.07 7.4-6.32 9.36C8.53 13 4.44 13.14.27 12.72a.28.28 0 0 0-.14.51z"/><path d="M10 7.62c1.53-.88 3-1.8 4.52-2.71.76-.46 1.52-.9 2.28-1.34a14.91 14.91 0 0 0 2.3-1.32c.52-.44 0-1.35-.67-1.15a11.75 11.75 0 0 0-2.3 1.33c-.77.48-1.53 1-2.29 1.48a38.76 38.76 0 0 0-4.27 3.21c-.28.25.08.68.38.5z"/></g></svg>