<svg viewBox="0 0 23.28 13.78" xmlns="http://www.w3.org/2000/svg"><path d="M23.14 11.77S21.21-1.23 1.22 1c4.91 17.2 21.92 10.77 21.92 10.77z" fill="#76912c"/><g fill="#535151"><path d="M22.3 11.52a19.67 19.67 0 0 1-6.55 1 15.45 15.45 0 0 1-6.6-1.88 15.73 15.73 0 0 1-4.54-3.86 24.08 24.08 0 0 1-2.92-5.34C1.33.67.26 1.25.4 2a13.57 13.57 0 0 0 3.07 5.7 16.81 16.81 0 0 0 5.27 4.24c4.16 2.1 9.67 2.58 13.94.49.51-.25.15-1.06-.38-.91z"/><path d="M23.25 11.93c.37-4.45-3-8.38-6.79-10.24C11.52-.74 5.77-.08.54.79-.41.94 0 2.4.94 2.23c4.72-.81 10-1.51 14.55.49 3.73 1.64 6.61 5 6.73 9.21a.52.52 0 0 0 1 0z"/><path d="M13.07 7.94a29.55 29.55 0 0 0 4.45 2c1.52.6 3 1.27 4.59 1.79.64.21 1.1-.84.47-1.12-1.5-.65-3-1.18-4.58-1.76a29.92 29.92 0 0 0-4.66-1.54.36.36 0 0 0-.27.65z"/></g></svg>