<svg viewBox="0 0 19.35 12.47" xmlns="http://www.w3.org/2000/svg"><path d="M0 1.76s12.37-4.64 18.55 7.73C10.82 18 0 4.85 0 1.76z" fill="#76912c"/><g fill="#535151"><path d="M.08 1.62a11.62 11.62 0 0 0 6.31 9.49A12.49 12.49 0 0 0 19 10.39c.8-.56.09-1.85-.77-1.33A11.44 11.44 0 0 1 7 9.82 12.76 12.76 0 0 1 .69 1.53a.31.31 0 0 0-.61.09z"/><path d="M.67 2.28a17.17 17.17 0 0 1 4.92-.9 16.59 16.59 0 0 1 5.21 1 11.13 11.13 0 0 1 7.06 7.09c.31.91 1.76.52 1.45-.4a12.63 12.63 0 0 0-7.81-8A17.06 17.06 0 0 0 5.59 0 8.15 8.15 0 0 0 .26 1.58a.42.42 0 0 0 .41.7z"/><path d="M10.07 7.1l3.8 1.78c.63.3 1.26.63 1.91.88s1.54.47 2-.1a.63.63 0 0 0-.12-1 2.39 2.39 0 0 0-.95-.14 3.89 3.89 0 0 1-.81-.22c-.61-.21-1.21-.44-1.82-.66l-3.69-1.3c-.43-.16-.74.56-.32.76z"/></g></svg>